<svg id="Group_3771" data-name="Group 3771" xmlns="http://www.w3.org/2000/svg" xmlns:xlink="http://www.w3.org/1999/xlink" width="332.999" height="209.93" viewBox="0 0 332.999 209.93">
  <defs>
    <clipPath id="clip-path">
      <rect id="Rectangle_2540" data-name="Rectangle 2540" width="332.998" height="209.93" fill="none"/>
    </clipPath>
    <clipPath id="clip-path-6">
      <rect id="Rectangle_2511" data-name="Rectangle 2511" width="56.12" height="26.372" fill="none"/>
    </clipPath>
    <clipPath id="clip-path-7">
      <rect id="Rectangle_2512" data-name="Rectangle 2512" width="8.837" height="8.837" fill="none"/>
    </clipPath>
    <clipPath id="clip-path-12">
      <rect id="Rectangle_2533" data-name="Rectangle 2533" width="11.088" height="11.088" fill="none"/>
    </clipPath>
    <clipPath id="clip-path-15">
      <rect id="Rectangle_2536" data-name="Rectangle 2536" width="27.887" height="26.825" fill="none"/>
    </clipPath>
    <clipPath id="clip-path-16">
      <rect id="Rectangle_2537" data-name="Rectangle 2537" width="24.944" height="16.454" fill="none"/>
    </clipPath>
    <clipPath id="clip-path-17">
      <rect id="Rectangle_2538" data-name="Rectangle 2538" width="10.209" height="30.299" fill="none"/>
    </clipPath>
  </defs>
  <g id="Group_3770" data-name="Group 3770" clip-path="url(#clip-path)">
    <g id="Group_3732" data-name="Group 3732">
      <g id="Group_3731" data-name="Group 3731" clip-path="url(#clip-path)">
        <path id="Path_3998" data-name="Path 3998" d="M198.5,28.46a26.9,26.9,0,0,1,6.562-2.852l1.352-6.5,10.974-.193,1.58,6.444a26.882,26.882,0,0,1,6.659,2.62l5.546-3.636,7.9,7.625-3.438,5.669a26.871,26.871,0,0,1,2.851,6.564l6.495,1.352.193,10.975-6.443,1.58a26.9,26.9,0,0,1-2.62,6.658l3.635,5.547-7.623,7.9-5.67-3.438a26.892,26.892,0,0,1-6.563,2.851l-1.352,6.5-10.974.193-1.58-6.444a26.894,26.894,0,0,1-6.658-2.62l-5.547,3.635-7.9-7.624,3.438-5.67a26.874,26.874,0,0,1-2.852-6.563l-6.495-1.352L179.782,46.7l6.444-1.58a26.914,26.914,0,0,1,2.62-6.658l-3.635-5.547,7.624-7.9Zm5.85,14.62A11.774,11.774,0,1,0,221,42.787a11.775,11.775,0,0,0-16.649.293" transform="translate(-89.545 -9.424)" fill="#e0e0e0"/>
        <path id="Path_3999" data-name="Path 3999" d="M106.138,6.054a17.064,17.064,0,0,1,4.164-1.81l.858-4.122L118.124,0l1,4.089a17.047,17.047,0,0,1,4.226,1.662l3.519-2.307,5.011,4.839-2.181,3.6a17.078,17.078,0,0,1,1.809,4.165l4.122.858.122,6.964-4.089,1A17.084,17.084,0,0,1,130,29.1l2.307,3.52-4.838,5.011-3.6-2.182a17.068,17.068,0,0,1-4.165,1.809l-.858,4.122-6.964.122-1-4.089a17.082,17.082,0,0,1-4.225-1.662l-3.52,2.307-5.011-4.839,2.181-3.6a17.074,17.074,0,0,1-1.81-4.165L94.378,24.6l-.122-6.964,4.089-1a17.062,17.062,0,0,1,1.662-4.225L97.7,8.883l4.838-5.011Zm3.712,9.278a7.472,7.472,0,1,0,10.566-.186,7.472,7.472,0,0,0-10.566.186" transform="translate(-46.947)" fill="#f5f5f5"/>
        <path id="Path_4000" data-name="Path 4000" d="M586.783,182.9a17.948,17.948,0,0,1,4.379-1.9l.9-4.334,7.323-.128,1.054,4.3a17.93,17.93,0,0,1,4.443,1.748l3.7-2.426,5.269,5.087-2.294,3.783a17.956,17.956,0,0,1,1.9,4.38l4.334.9.129,7.323-4.3,1.055a17.959,17.959,0,0,1-1.748,4.443l2.426,3.7-5.087,5.269-3.784-2.294a17.938,17.938,0,0,1-4.379,1.9l-.9,4.334-7.322.128-1.055-4.3a17.952,17.952,0,0,1-4.443-1.748l-3.7,2.426-5.269-5.088,2.294-3.784a17.929,17.929,0,0,1-1.9-4.379l-4.334-.9-.128-7.323,4.3-1.055a17.937,17.937,0,0,1,1.748-4.443l-2.426-3.7L583,180.609Zm3.9,9.755a7.857,7.857,0,1,0,11.109-.2,7.856,7.856,0,0,0-11.109.2" transform="translate(-286.04 -87.929)" fill="#f5f5f5"/>
        <path id="Path_4001" data-name="Path 4001" d="M37.239,112.643A19.513,19.513,0,0,1,42,110.574l.981-4.713,7.962-.14,1.146,4.674a19.486,19.486,0,0,1,4.831,1.9l4.024-2.638,5.728,5.532L64.177,119.3a19.462,19.462,0,0,1,2.069,4.762l4.712.98.14,7.962-4.674,1.146a19.516,19.516,0,0,1-1.9,4.831l2.637,4.024-5.53,5.729-4.114-2.495a19.489,19.489,0,0,1-4.761,2.069l-.981,4.712-7.961.14-1.146-4.675a19.5,19.5,0,0,1-4.831-1.9l-4.024,2.638L28.083,143.7l2.494-4.114a19.508,19.508,0,0,1-2.069-4.761l-4.712-.981-.14-7.962,4.674-1.146a19.508,19.508,0,0,1,1.9-4.83l-2.638-4.024,5.531-5.729Zm4.245,10.606a8.542,8.542,0,1,0,12.078-.212,8.541,8.541,0,0,0-12.078.212" transform="translate(-11.783 -52.658)" fill="#e0e0e0"/>
      </g>
    </g>
    <path id="Path_4002" data-name="Path 4002" d="M0,398.463H0Z" transform="translate(0 -198.465)" fill="#6370ff"/>
    <g id="Group_3734" data-name="Group 3734">
      <g id="Group_3733" data-name="Group 3733" clip-path="url(#clip-path)">
        <path id="Path_4003" data-name="Path 4003" d="M330.778,398.334c0,.072-74.053.13-165.381.13-91.36,0-165.4-.058-165.4-.13s74.037-.131,165.4-.131c91.328,0,165.381.058,165.381.131" transform="translate(0 -198.335)" fill="#263238"/>
      </g>
    </g>
    <g id="Group_3736" data-name="Group 3736">
      <g id="Group_3735" data-name="Group 3735" clip-path="url(#clip-path)">
        <path id="Path_4004" data-name="Path 4004" d="M581.416,285.06a6.6,6.6,0,0,0-6.393-5.028c-2.6.566-3.518,3.19-3.723,5.848s.723,5.258,1.636,7.763l8.8,24.125,7.352-1.1c-2.778-10.821-4.528-20.884-7.672-31.6" transform="translate(-284.536 -139.477)" fill="#455a64"/>
        <path id="Path_4005" data-name="Path 4005" d="M576.947,279.6a9.864,9.864,0,0,0-.844,1.235,8.442,8.442,0,0,0-.968,3.909,17.882,17.882,0,0,0,1.153,5.909l2.4,7.056,4.3,12.84,1.275,3.9.333,1.065a2.058,2.058,0,0,1,.1.377,2.089,2.089,0,0,1-.151-.36l-.382-1.049-1.357-3.873L578.426,297.8l-2.376-7.066a17.682,17.682,0,0,1-1.107-5.991,8.287,8.287,0,0,1,1.068-3.957,4.557,4.557,0,0,1,.936-1.183" transform="translate(-286.362 -139.264)" fill="#263238"/>
        <path id="Path_4006" data-name="Path 4006" d="M590.779,315.894a2,2,0,0,1-.182-.347c-.106-.233-.277-.571-.462-1.021-.388-.893-.894-2.212-1.428-3.871s-1.08-3.662-1.617-5.9c-.519-2.244-1.088-4.706-1.687-7.29-.618-2.579-1.29-5.016-2.041-7.184a40.373,40.373,0,0,0-2.383-5.6,30.291,30.291,0,0,0-2.136-3.507c-.271-.4-.513-.693-.659-.9a2.2,2.2,0,0,1-.221-.324,2.06,2.06,0,0,1,.263.29c.16.2.418.48.7.875a26.98,26.98,0,0,1,2.22,3.479A38.626,38.626,0,0,1,583.6,290.2a73.006,73.006,0,0,1,2.069,7.2c.591,2.586,1.154,5.05,1.666,7.3s1.044,4.241,1.556,5.9.985,2.984,1.343,3.888c.17.456.324.8.415,1.039a2.188,2.188,0,0,1,.131.369" transform="translate(-287.869 -139.432)" fill="#263238"/>
        <path id="Path_4007" data-name="Path 4007" d="M572.926,304.678c.02.072-.374.248-.883.394s-.937.2-.958.133.375-.249.883-.394.937-.2.958-.133" transform="translate(-284.443 -151.737)" fill="#263238"/>
        <path id="Path_4008" data-name="Path 4008" d="M570.314,294.624a9.136,9.136,0,0,1-2.494.2,4.3,4.3,0,0,1,2.494-.2" transform="translate(-282.817 -146.692)" fill="#263238"/>
        <path id="Path_4009" data-name="Path 4009" d="M572.414,284.187c-.046.059-.458-.185-.919-.546s-.8-.7-.752-.76.458.185.92.546.8.7.752.76" transform="translate(-284.271 -140.892)" fill="#263238"/>
        <path id="Path_4010" data-name="Path 4010" d="M578.027,276.821c.076.014.069.373.076.808s.018.794-.057.81-.21-.341-.215-.807.124-.826.2-.811" transform="translate(-287.803 -137.877)" fill="#263238"/>
        <path id="Path_4011" data-name="Path 4011" d="M586.581,280.447c.063.041-.1.412-.37.829s-.536.723-.6.682.1-.412.37-.829.536-.723.6-.682" transform="translate(-291.672 -139.682)" fill="#263238"/>
        <path id="Path_4012" data-name="Path 4012" d="M592.156,290.534c.031.068-.342.305-.834.53s-.916.35-.947.282.342-.305.834-.529.915-.35.947-.282" transform="translate(-294.05 -144.698)" fill="#263238"/>
        <path id="Path_4013" data-name="Path 4013" d="M595.558,301.029a3.411,3.411,0,0,1-2.425.654,24.493,24.493,0,0,1,2.425-.654" transform="translate(-295.425 -149.928)" fill="#263238"/>
        <path id="Path_4014" data-name="Path 4014" d="M581.228,297.116c-.073-.02-.036-.391.083-.829s.273-.777.345-.758.036.391-.083.829-.273.777-.345.758" transform="translate(-289.477 -147.195)" fill="#263238"/>
        <path id="Path_4015" data-name="Path 4015" d="M584.1,309.821a2.567,2.567,0,0,1,.289-1.123c.23-.594.473-1.052.543-1.025a2.567,2.567,0,0,1-.29,1.123c-.229.593-.472,1.052-.543,1.025" transform="translate(-290.915 -153.243)" fill="#263238"/>
        <path id="Path_4016" data-name="Path 4016" d="M576.47,315.243c-.026.072-.5-.037-1.073-.19s-1.037-.3-1.024-.373a2,2,0,0,1,1.095.11c.587.158,1.028.385,1,.453" transform="translate(-286.081 -156.715)" fill="#263238"/>
        <path id="Path_4017" data-name="Path 4017" d="M580.765,326.589c.046.059-.259.372-.68.7s-.8.544-.847.485.259-.372.68-.7.8-.544.847-.485" transform="translate(-288.502 -162.661)" fill="#263238"/>
        <path id="Path_4018" data-name="Path 4018" d="M583.582,337.319c.021.072-.364.246-.86.387s-.914.2-.935.126.364-.246.86-.388.914-.2.935-.126" transform="translate(-289.774 -167.995)" fill="#263238"/>
        <path id="Path_4019" data-name="Path 4019" d="M596.949,310.089c.04.061-.284.342-.764.544s-.906.241-.922.17.36-.226.816-.421.829-.358.87-.294" transform="translate(-296.486 -154.441)" fill="#263238"/>
        <path id="Path_4020" data-name="Path 4020" d="M599.666,326.18c-.029.069-.433-.035-.9-.233s-.825-.415-.8-.483.433.035.9.233.825.414.8.483" transform="translate(-297.833 -162.095)" fill="#263238"/>
        <path id="Path_4021" data-name="Path 4021" d="M603.183,338.047a5.451,5.451,0,0,1-2.288-.792,5.453,5.453,0,0,1,2.288.792" transform="translate(-299.291 -167.968)" fill="#263238"/>
        <path id="Path_4022" data-name="Path 4022" d="M586.415,347.416c-.04-.067.432-.412.973-.876s.959-.872,1.019-.823-.278.55-.842,1.029a2.431,2.431,0,0,1-1.149.67" transform="translate(-292.077 -172.191)" fill="#263238"/>
        <path id="Path_4023" data-name="Path 4023" d="M594.969,340.846c-.077.012-.2-.391-.4-.857s-.412-.832-.351-.88.383.267.6.771.224.957.153.966" transform="translate(-295.959 -168.899)" fill="#263238"/>
        <path id="Path_4024" data-name="Path 4024" d="M591.351,327.3c-.041.063-.357-.072-.705-.3s-.6-.466-.556-.529.357.073.705.3.6.466.556.529" transform="translate(-293.907 -162.598)" fill="#263238"/>
        <path id="Path_4025" data-name="Path 4025" d="M601.366,316.107c.019.071-.412.245-.976.3s-1.022-.018-1.018-.091.448-.12.99-.179.986-.109,1-.035" transform="translate(-298.532 -157.427)" fill="#263238"/>
        <path id="Path_4026" data-name="Path 4026" d="M602.567,306.721c0,.072-.444.1-.937-.1s-.787-.534-.738-.586.392.153.841.335.84.277.834.354" transform="translate(-299.287 -152.422)" fill="#263238"/>
        <path id="Path_4027" data-name="Path 4027" d="M604.316,331.023c-.01.074-.382.085-.831.025s-.8-.17-.795-.245.383-.085.831-.025.8.17.795.244" transform="translate(-300.185 -164.733)" fill="#263238"/>
        <path id="Path_4028" data-name="Path 4028" d="M631.394,313.863c-.052.054-.42-.217-.822-.606s-.685-.748-.633-.8.42.217.822.606.685.748.633.8" transform="translate(-313.754 -155.623)" fill="#263238"/>
        <path id="Path_4029" data-name="Path 4029" d="M643.716,273.477a13.747,13.747,0,0,0,.059-4.962,4.349,4.349,0,0,0-8.049-1.755,13.694,13.694,0,0,0-2.206,5.2,190.331,190.331,0,0,0-5.989,38.725l7.475,1.775c4.607-13.281,6.787-25.063,8.709-38.989" transform="translate(-312.558 -131.834)" fill="#455a64"/>
        <path id="Path_4030" data-name="Path 4030" d="M641.784,264.689a.444.444,0,0,1-.046.117l-.157.332-.628,1.261c-.132.275-.3.571-.448.913l-.475,1.113-.549,1.277-.533,1.466a66.176,66.176,0,0,0-2.169,7.359c-.678,2.81-1.244,5.94-1.768,9.236-1.013,6.6-1.64,12.62-2.221,16.961-.286,2.171-.526,3.927-.725,5.135l-.226,1.392-.066.361a.43.43,0,0,1-.031.121.4.4,0,0,1,0-.126c.011-.1.023-.218.039-.365l.176-1.4c.166-1.213.377-2.971.638-5.145.532-4.344,1.129-10.367,2.143-16.979.525-3.3,1.1-6.437,1.793-9.252a63,63,0,0,1,2.232-7.367l.553-1.463.57-1.274.5-1.107c.154-.34.331-.633.471-.9l.675-1.24.181-.319a.432.432,0,0,1,.07-.1" transform="translate(-314.653 -131.835)" fill="#263238"/>
        <path id="Path_4031" data-name="Path 4031" d="M647.111,264.829a5.443,5.443,0,0,1,.778,1.654,11.649,11.649,0,0,1,.229,4.965c-.6,4.167-1.513,9.9-2.611,16.222s-2.2,12.028-3.037,16.148c-.419,2.06-.771,3.724-1.023,4.873q-.187.833-.3,1.321l-.084.342a.386.386,0,0,1-.038.114.409.409,0,0,1,.01-.12L641.1,310q.091-.49.247-1.331c.226-1.179.546-2.843.939-4.889.791-4.129,1.858-9.837,2.958-16.158s2.046-12.05,2.688-16.2a11.915,11.915,0,0,0-.14-4.911,10.252,10.252,0,0,0-.677-1.684" transform="translate(-319.279 -131.905)" fill="#263238"/>
        <path id="Path_4032" data-name="Path 4032" d="M657.269,303.615a8.168,8.168,0,0,1-2.686-1.259,8.169,8.169,0,0,1,2.686,1.259" transform="translate(-326.031 -150.59)" fill="#263238"/>
        <path id="Path_4033" data-name="Path 4033" d="M660.262,289.65a9.054,9.054,0,0,1-2.962,1,9.068,9.068,0,0,1,2.962-1" transform="translate(-327.385 -144.259)" fill="#263238"/>
        <path id="Path_4034" data-name="Path 4034" d="M661.233,276.616a4.75,4.75,0,0,1-2.225-.365,4.748,4.748,0,0,1,2.225.365" transform="translate(-328.236 -137.572)" fill="#263238"/>
        <path id="Path_4035" data-name="Path 4035" d="M647.553,265.418c-.067.034-.36-.411-.654-.993a2.674,2.674,0,0,1-.411-1.116c.067-.034.36.411.654.993a2.69,2.69,0,0,1,.411,1.115" transform="translate(-321.993 -131.147)" fill="#263238"/>
        <path id="Path_4036" data-name="Path 4036" d="M640.638,274.313a2.25,2.25,0,0,1-1.087.011c-.591-.068-1.063-.184-1.055-.259a2.262,2.262,0,0,1,1.087-.011c.591.068,1.064.185,1.055.259" transform="translate(-318.019 -136.476)" fill="#263238"/>
        <path id="Path_4037" data-name="Path 4037" d="M635.571,288.379a2.634,2.634,0,0,1-1.1-.417c-.575-.3-1.013-.592-.978-.659a2.632,2.632,0,0,1,1.1.418c.575.3,1.013.592.978.658" transform="translate(-315.525 -143.092)" fill="#263238"/>
        <path id="Path_4038" data-name="Path 4038" d="M634.033,302.134c.009.075-.438.186-1,.25s-1.018.054-1.026-.021.437-.186,1-.25,1.018-.054,1.026.021" transform="translate(-314.789 -150.454)" fill="#263238"/>
        <path id="Path_4039" data-name="Path 4039" d="M630.221,322.855c.007.075-.465.175-1.054.224a2.22,2.22,0,0,1-1.076-.046c-.006-.075.465-.175,1.054-.224a2.218,2.218,0,0,1,1.076.046" transform="translate(-312.837 -160.77)" fill="#263238"/>
        <path id="Path_4040" data-name="Path 4040" d="M628.182,334.333c.029.069-.379.3-.91.524s-.986.342-1.015.273.379-.3.91-.524.986-.342,1.014-.273" transform="translate(-311.923 -166.513)" fill="#263238"/>
        <path id="Path_4041" data-name="Path 4041" d="M637.226,346.042a5.969,5.969,0,1,1-.4-1.209,3.068,3.068,0,0,1,.4,1.209" transform="translate(-316.858 -171.206)" fill="#263238"/>
        <path id="Path_4042" data-name="Path 4042" d="M641.041,326.824c.047.058-.366.472-.923.924a3.208,3.208,0,0,1-1.094.712c-.047-.058.365-.471.922-.924a3.218,3.218,0,0,1,1.094-.712" transform="translate(-318.281 -162.78)" fill="#263238"/>
        <path id="Path_4043" data-name="Path 4043" d="M642.316,313.8c-.06.046-.377-.269-.709-.7s-.553-.822-.493-.868.377.269.709.7.553.822.493.868" transform="translate(-319.318 -155.51)" fill="#263238"/>
        <path id="Path_4044" data-name="Path 4044" d="M645.02,300.945c.051.055-.3.462-.782.908s-.916.764-.967.709.3-.462.782-.908.916-.764.967-.709" transform="translate(-320.395 -149.89)" fill="#263238"/>
        <path id="Path_4045" data-name="Path 4045" d="M647.238,288.6c-.057.048-.457-.331-.892-.848s-.742-.974-.685-1.023.457.331.892.848.741.975.684,1.023" transform="translate(-321.584 -142.813)" fill="#263238"/>
        <path id="Path_4046" data-name="Path 4046" d="M650.835,276.347c.061.045-.2.505-.585,1.03s-.744.913-.8.869.2-.505.585-1.03.743-.913.8-.869" transform="translate(-323.468 -137.64)" fill="#263238"/>
        <path id="Path_4047" data-name="Path 4047" d="M656.074,263.454c.062.042-.175.505-.529,1.036s-.693.927-.755.885.175-.505.53-1.036.693-.927.755-.885" transform="translate(-326.129 -131.218)" fill="#263238"/>
        <path id="Path_4048" data-name="Path 4048" d="M659.674,269.868c.026.07-.3.254-.721.41s-.79.225-.816.155.3-.254.722-.41.789-.225.815-.155" transform="translate(-327.801 -134.401)" fill="#263238"/>
        <path id="Path_4049" data-name="Path 4049" d="M654.185,316.089a4.645,4.645,0,0,1-2.655-1.441,58.066,58.066,0,0,1,2.655,1.441" transform="translate(-324.51 -156.715)" fill="#263238"/>
        <path id="Path_4050" data-name="Path 4050" d="M651.96,327.375c.007.075-.463.182-1.051.239a2.211,2.211,0,0,1-1.077-.032c-.007-.075.463-.182,1.051-.238a2.225,2.225,0,0,1,1.077.032" transform="translate(-323.666 -163.024)" fill="#263238"/>
        <path id="Path_4051" data-name="Path 4051" d="M648.573,342a4.31,4.31,0,0,1-1.654-2.544A279.425,279.425,0,0,0,648.573,342" transform="translate(-322.208 -169.075)" fill="#263238"/>
        <path id="Path_4052" data-name="Path 4052" d="M625.218,348.97c-.043-.061.3-.375.759-.7s.873-.54.916-.479-.3.375-.759.7-.873.54-.916.479" transform="translate(-311.404 -173.22)" fill="#263238"/>
        <path id="Path_4053" data-name="Path 4053" d="M614.814,300.274c-.3-1.822-1.05-4-2.873-4.3a3.067,3.067,0,0,0-2.821,1.343,6.41,6.41,0,0,0-1.156,3.048,82.979,82.979,0,0,0,.582,23.382l6.685.98a80.283,80.283,0,0,0-.416-24.455" transform="translate(-302.533 -147.404)" fill="#455a64"/>
        <path id="Path_4054" data-name="Path 4054" d="M614.53,296.005a7.157,7.157,0,0,0-.705.863,6.3,6.3,0,0,0-.746,2.91c-.057,1.289-.136,2.841-.169,4.549s0,3.6.1,5.571c.193,3.952.539,7.522.711,10.114.09,1.3.147,2.345.174,3.071.008.333.015.609.02.836a1.062,1.062,0,0,1-.014.293,1.044,1.044,0,0,1-.048-.289c-.021-.226-.047-.5-.078-.832-.069-.771-.16-1.8-.271-3.061-.228-2.585-.608-6.153-.8-10.117-.094-1.981-.119-3.872-.074-5.591.018-.86.065-1.676.107-2.439s.069-1.47.129-2.121a6.132,6.132,0,0,1,.863-2.958,2.668,2.668,0,0,1,.806-.8" transform="translate(-305.123 -147.433)" fill="#263238"/>
        <path id="Path_4055" data-name="Path 4055" d="M621.508,300.026c.04.075-.349.361-.869.639s-.974.441-1.014.365.349-.361.869-.638.974-.441,1.014-.366" transform="translate(-308.618 -149.426)" fill="#263238"/>
        <path id="Path_4056" data-name="Path 4056" d="M623.385,310.331c0,.083-.553.117-1.2-.052s-1.112-.462-1.075-.536.535.079,1.152.237,1.129.264,1.123.351" transform="translate(-309.358 -154.264)" fill="#263238"/>
        <path id="Path_4057" data-name="Path 4057" d="M623.5,320.6c-.055.065-.53-.25-1.06-.7s-.915-.873-.86-.938.531.25,1.061.7.915.873.859.938" transform="translate(-309.592 -158.862)" fill="#263238"/>
        <rect id="Rectangle_2508" data-name="Rectangle 2508" width="38.68" height="6.856" transform="translate(290.884 174.016)" fill="#6370ff"/>
        <path id="Path_4058" data-name="Path 4058" d="M585.293,357.647l4.7,20.487H613.05l5.146-20.487Z" transform="translate(-291.52 -178.135)" fill="#6370ff"/>
        <path id="Path_4059" data-name="Path 4059" d="M617.886,360.239c0,.075-8.725.136-19.485.136s-19.487-.061-19.487-.136,8.723-.136,19.487-.136,19.485.061,19.485.136" transform="translate(-288.343 -179.358)" fill="#263238"/>
        <path id="Path_4060" data-name="Path 4060" d="M617.2,310.676c-.078.034-.325-.356-.551-.872s-.346-.961-.268-1,.325.356.551.872.346.962.268,1" transform="translate(-306.993 -153.809)" fill="#263238"/>
        <path id="Path_4061" data-name="Path 4061" d="M616.238,322.778c-.076-.039.1-.548.4-1.138s.6-1.037.676-1-.1.548-.4,1.138-.6,1.037-.676,1" transform="translate(-306.924 -159.703)" fill="#263238"/>
        <path id="Path_4062" data-name="Path 4062" d="M617.748,335.892a6.22,6.22,0,1,1-.261-1.362,3.2,3.2,0,0,1,.261,1.362" transform="translate(-307.266 -165.988)" fill="#263238"/>
        <path id="Path_4063" data-name="Path 4063" d="M605.081,342.8c-.053-.067.281-.419.745-.786s.884-.611.937-.544-.281.419-.745.786-.884.611-.937.544" transform="translate(-301.373 -170.072)" fill="#263238"/>
      </g>
    </g>
    <g id="Group_3744" data-name="Group 3744">
      <g id="Group_3743" data-name="Group 3743" clip-path="url(#clip-path)">
        <path id="Path_4064" data-name="Path 4064" d="M328.262,241.755H114.585a7.311,7.311,0,0,1-7.312-7.311V98.094a7.312,7.312,0,0,1,7.312-7.312H328.262a7.312,7.312,0,0,1,7.311,7.312v136.35a7.311,7.311,0,0,1-7.311,7.311" transform="translate(-53.43 -45.216)" fill="#455a64"/>
        <path id="Path_4065" data-name="Path 4065" d="M327.911,385.354H98.43a8.933,8.933,0,0,1-8.933-8.933v-4.277H336.844v4.277a8.933,8.933,0,0,1-8.933,8.933" transform="translate(-44.576 -185.356)" fill="#455a64"/>
        <path id="Path_4066" data-name="Path 4066" d="M289.86,369.324l3.069,4.882h43.19l2.85-4.882Z" transform="translate(-144.372 -183.951)" fill="#263238"/>
        <path id="Path_4067" data-name="Path 4067" d="M333.655,234.1H129.965a1.643,1.643,0,0,1-1.643-1.643V112.974a1.643,1.643,0,0,1,1.643-1.643H333.655a1.643,1.643,0,0,1,1.643,1.643V232.46a1.643,1.643,0,0,1-1.643,1.642" transform="translate(-63.914 -55.451)" fill="#ebebeb"/>
        <path id="Path_4068" data-name="Path 4068" d="M334.857,243.386H127.881l.221-113.775H334.857Z" transform="translate(-63.694 -64.556)" fill="#fff"/>
        <path id="Path_4069" data-name="Path 4069" d="M158.862,119.138a1.653,1.653,0,1,1-1.653-1.653,1.653,1.653,0,0,1,1.653,1.653" transform="translate(-77.479 -58.516)" fill="#263238"/>
        <path id="Path_4070" data-name="Path 4070" d="M138.9,119.138a1.653,1.653,0,1,1-1.653-1.653,1.653,1.653,0,0,1,1.653,1.653" transform="translate(-67.537 -58.516)" fill="#263238"/>
        <path id="Path_4071" data-name="Path 4071" d="M148.482,119.138a1.653,1.653,0,1,1-1.653-1.653,1.653,1.653,0,0,1,1.653,1.653" transform="translate(-72.309 -58.516)" fill="#263238"/>
        <path id="Path_4072" data-name="Path 4072" d="M333.612,369.178c0,.082-50.672.148-113.164.148-62.514,0-113.175-.066-113.175-.148s50.661-.148,113.175-.148c62.492,0,113.164.066,113.164.148" transform="translate(-53.43 -183.805)" fill="#263238"/>
        <path id="Path_4073" data-name="Path 4073" d="M477.717,327.774H474.7a.251.251,0,1,1,0-.5h2.761v-2.761a.251.251,0,0,1,.5,0v3.012a.251.251,0,0,1-.251.251" transform="translate(-236.314 -161.506)" fill="#e0e0e0"/>
        <path id="Path_4074" data-name="Path 4074" d="M422.37,330.763h-5.855a.251.251,0,1,1,0-.5h5.855a.251.251,0,1,1,0,.5m-11.71,0H404.8a.251.251,0,0,1,0-.5h5.855a.251.251,0,0,1,0,.5m-11.71,0h-5.855a.251.251,0,1,1,0-.5h5.855a.251.251,0,0,1,0,.5m-11.71,0h-5.855a.251.251,0,0,1,0-.5h5.855a.251.251,0,0,1,0,.5" transform="translate(-189.833 -164.495)" fill="#e0e0e0"/>
        <path id="Path_4075" data-name="Path 4075" d="M366.733,327.774h-3.012a.251.251,0,0,1-.251-.251v-3.012a.251.251,0,0,1,.5,0v2.761h2.761a.251.251,0,0,1,0,.5" transform="translate(-181.035 -161.506)" fill="#e0e0e0"/>
        <path id="Path_4076" data-name="Path 4076" d="M363.721,281.115a.251.251,0,0,1-.251-.251v-6.276a.251.251,0,1,1,.5,0v6.276a.251.251,0,0,1-.251.251m0-12.553a.251.251,0,0,1-.251-.251v-6.277a.251.251,0,0,1,.5,0v6.277a.251.251,0,0,1-.251.251m0-12.553a.251.251,0,0,1-.251-.251v-6.277a.251.251,0,0,1,.5,0v6.277a.251.251,0,0,1-.251.251" transform="translate(-181.035 -124.135)" fill="#e0e0e0"/>
        <path id="Path_4077" data-name="Path 4077" d="M363.721,234.237a.251.251,0,0,1-.251-.251v-3.012a.251.251,0,0,1,.251-.251h3.012a.251.251,0,0,1,0,.5h-2.761v2.761a.251.251,0,0,1-.251.251" transform="translate(-181.035 -114.918)" fill="#e0e0e0"/>
        <path id="Path_4078" data-name="Path 4078" d="M422.371,231.226h-5.855a.251.251,0,0,1,0-.5h5.855a.251.251,0,1,1,0,.5m-11.71,0h-5.855a.251.251,0,1,1,0-.5h5.855a.251.251,0,0,1,0,.5m-11.71,0H393.1a.251.251,0,0,1,0-.5h5.855a.251.251,0,1,1,0,.5m-11.71,0h-5.855a.251.251,0,0,1,0-.5h5.855a.251.251,0,0,1,0,.5" transform="translate(-189.834 -114.918)" fill="#e0e0e0"/>
        <path id="Path_4079" data-name="Path 4079" d="M477.717,234.237a.251.251,0,0,1-.251-.251v-2.761H474.7a.251.251,0,1,1,0-.5h3.012a.251.251,0,0,1,.251.251v3.012a.251.251,0,0,1-.251.251" transform="translate(-236.314 -114.918)" fill="#e0e0e0"/>
        <path id="Path_4080" data-name="Path 4080" d="M480.705,281.115a.251.251,0,0,1-.251-.251v-6.277a.251.251,0,1,1,.5,0v6.277a.251.251,0,0,1-.251.251m0-12.553a.251.251,0,0,1-.251-.251v-6.277a.251.251,0,0,1,.5,0v6.277a.251.251,0,0,1-.251.251m0-12.554a.251.251,0,0,1-.251-.251v-6.277a.251.251,0,0,1,.5,0v6.277a.251.251,0,0,1-.251.251" transform="translate(-239.302 -124.135)" fill="#e0e0e0"/>
        <path id="Path_4081" data-name="Path 4081" d="M363.395,27.3a8.747,8.747,0,0,0,.193,8.124c.677,1.188,1.682,2.433,1.317,3.757s-1.947,2.028-2.263,3.35c-.372,1.556,1.175,2.879,1.513,4.437a3.189,3.189,0,0,1-2.062,3.568,12.444,12.444,0,0,0,6.693-.238l.624-2.72a2.245,2.245,0,0,0,1.32,2.445,5.2,5.2,0,0,0,2.972.27,15.894,15.894,0,0,0,11.537-7.92" transform="translate(-180.349 -13.598)" fill="#263238"/>
        <path id="Path_4082" data-name="Path 4082" d="M391.661,16.085a31.135,31.135,0,0,1-2.359-2.3c-1.434-1.877-1.515-4.716-3.423-6.114-1.358-.995-3.217-.917-4.894-.671s-3.429.61-5.024.06c-1.17-.4-2.134-1.265-3.3-1.673a7.509,7.509,0,0,0-5.171.5,10.715,10.715,0,0,0-4.455,3.057,5.8,5.8,0,0,0-1.236,5.087,16.845,16.845,0,0,1,.832,2.5,18.032,18.032,0,0,1-.278,2.891,4.6,4.6,0,0,0,3.418,4.52l18.083,9.116c2.788-.233,8.025-4.024,9.04-6.627s.679-8.323-1.232-10.34" transform="translate(-180.114 -2.545)" fill="#263238"/>
        <path id="Path_4083" data-name="Path 4083" d="M368.3,27.745c-1.079-3.5-.388-8.57,3.18-9.525L383.212,16.8a2.142,2.142,0,0,1,2.577,1.341l8.916,25.081a.463.463,0,0,0,.71-.073.151.151,0,0,1,.259.126c-.393,2.33.067,7.767-6.961,8.23-1.571.1-4.655.227-5.532-1.232l-1.667-4c-.81-2.061-1.131-2.91-1.125-2.891,0,0-4.674.961-7.747-4.388A64.5,64.5,0,0,1,368.3,27.745" transform="translate(-183.208 -8.332)" fill="#ae7461"/>
        <path id="Path_4084" data-name="Path 4084" d="M376.041,46.752a.781.781,0,0,0,.989.465.755.755,0,0,0,.509-.95.781.781,0,0,0-.989-.466.755.755,0,0,0-.51.95" transform="translate(-187.278 -22.792)" fill="#263238"/>
        <path id="Path_4085" data-name="Path 4085" d="M390.209,41.414a.781.781,0,0,0,.989.465.754.754,0,0,0,.509-.95.781.781,0,0,0-.989-.466.755.755,0,0,0-.509.95" transform="translate(-194.334 -20.134)" fill="#263238"/>
        <path id="Path_4086" data-name="Path 4086" d="M372.052,41.559c.138.093.6-.635,1.488-.907s1.68.04,1.74-.116c.031-.07-.138-.263-.49-.413a2.1,2.1,0,0,0-2.576.816c-.2.326-.228.58-.162.62" transform="translate(-185.294 -19.905)" fill="#263238"/>
        <path id="Path_4087" data-name="Path 4087" d="M387.555,36.062c.154.073.584-.7,1.492-1.087s1.774-.183,1.824-.343c.026-.073-.167-.24-.552-.341a2.4,2.4,0,0,0-1.52.129,2.346,2.346,0,0,0-1.126,1.012c-.184.347-.191.6-.118.63" transform="translate(-193.01 -17.045)" fill="#263238"/>
        <path id="Path_4088" data-name="Path 4088" d="M384.615,44.24a5.654,5.654,0,0,0-1.374.263c-.21.057-.417.09-.5-.034a1.085,1.085,0,0,1-.091-.647q.009-.838.018-1.758a28,28,0,0,0-.173-4.514,28.165,28.165,0,0,0-.193,4.521c0,.613.007,1.2.011,1.758a1.233,1.233,0,0,0,.194.828.54.54,0,0,0,.444.166,1.475,1.475,0,0,0,.361-.084,5.567,5.567,0,0,0,1.3-.5" transform="translate(-190.414 -18.702)" fill="#263238"/>
        <path id="Path_4089" data-name="Path 4089" d="M392.852,64.894a15.786,15.786,0,0,0,6.916-4.982s-.416,4.74-6.363,6.408Z" transform="translate(-195.67 -29.841)" fill="#6f4439"/>
        <path id="Path_4090" data-name="Path 4090" d="M389.168,53.691a1.541,1.541,0,0,1,1.277-.755,1.386,1.386,0,0,1,1.023.369.873.873,0,0,1,.2.985,1.034,1.034,0,0,1-1.061.436,3.181,3.181,0,0,1-1.16-.48.926.926,0,0,1-.274-.212.279.279,0,0,1-.042-.311" transform="translate(-193.804 -26.366)" fill="#6f4439"/>
        <path id="Path_4091" data-name="Path 4091" d="M390.6,51.108c-.132.042.19.9-.316,1.784s-1.458,1.144-1.419,1.266c.009.058.267.088.658-.05a2.314,2.314,0,0,0,1.2-1.009,1.983,1.983,0,0,0,.21-1.475c-.1-.369-.279-.545-.336-.517" transform="translate(-193.683 -25.454)" fill="#263238"/>
        <path id="Path_4092" data-name="Path 4092" d="M384.644,31.073c.19.151.855-.385,1.764-.806.9-.439,1.736-.613,1.741-.857,0-.114-.232-.225-.624-.243a3.232,3.232,0,0,0-1.479.327,3.267,3.267,0,0,0-1.192.94c-.235.316-.3.566-.21.64" transform="translate(-191.563 -14.526)" fill="#263238"/>
        <path id="Path_4093" data-name="Path 4093" d="M370.129,36.91c.23.136.89-.247,1.741-.487.845-.263,1.611-.3,1.726-.54.048-.113-.115-.268-.477-.357a3.014,3.014,0,0,0-1.5.08,2.968,2.968,0,0,0-1.293.747c-.252.271-.3.488-.2.557" transform="translate(-184.327 -17.664)" fill="#263238"/>
        <path id="Path_4094" data-name="Path 4094" d="M387.633,15.869a5.016,5.016,0,0,0-3.022-.427,56.812,56.812,0,0,0-13.144,2.591,2.258,2.258,0,0,0,1.906,2.186,10.256,10.256,0,0,0,3.176-.078,3.961,3.961,0,0,1,3.017.692c.838.751,1.026,2.021,1.825,2.813,1.373,1.364,3.94.8,5.3,2.17,1.032,1.037.929,2.71,1.364,4.108a5.3,5.3,0,0,0,3.369,3.407,5.407,5.407,0,0,0,3.848-.238L389.43,18.529a5.171,5.171,0,0,0-1.8-2.66" transform="translate(-185.014 -7.669)" fill="#263238"/>
        <path id="Path_4095" data-name="Path 4095" d="M418.455,21.67c-1.067-.313-2.282-.445-3.033-1.26-1.093-1.187-.735-3.359-2.059-4.284-1.208-.844-3.133.139-4.306-.753-.915-.7-.748-1.775-1.313-2.5a2.461,2.461,0,0,0-2.846-.4l-2.1,12.43c.872,3.423,1.05,5.381,2.593,6.894a16.329,16.329,0,0,1,2.439,2.575,3.355,3.355,0,0,1,.359,3.37c4.032-1.538,6.727-5.282,9.177-8.828l2.592-3.753a2.885,2.885,0,0,0,.6-1.273c.118-1.105-1.032-1.91-2.1-2.223" transform="translate(-200.622 -6.074)" fill="#263238"/>
        <path id="Path_4096" data-name="Path 4096" d="M400.814,26.433a2.047,2.047,0,0,1-.378.276,3.948,3.948,0,0,1-1.251.488,4.155,4.155,0,0,1-2.115-.1,4.022,4.022,0,0,1-2.174-1.729,4.136,4.136,0,0,1-.569-1.54,6.676,6.676,0,0,1,.047-1.776,6.274,6.274,0,0,0,.045-1.84,2.1,2.1,0,0,0-.978-1.537,3.885,3.885,0,0,0-2.011-.062,1.965,1.965,0,0,1-1.116-.217,1.891,1.891,0,0,1-.743-.885,12.019,12.019,0,0,1-.5-2.219,2.4,2.4,0,0,0-.458-.988,1.513,1.513,0,0,0-.93-.517,4.327,4.327,0,0,0-2.213.41,4.689,4.689,0,0,1-2.28.363,4.14,4.14,0,0,1-2.066-.826,6.756,6.756,0,0,1-1.376-1.609,9.449,9.449,0,0,0-1.2-1.554,4.247,4.247,0,0,0-1.558-.935,4.863,4.863,0,0,0-5.434,1.7,5.91,5.91,0,0,0-.966,1.841,7.764,7.764,0,0,0-.307,1.755.432.432,0,0,1-.01-.118c0-.078-.009-.195,0-.347a5.615,5.615,0,0,1,.222-1.317,5.869,5.869,0,0,1,.948-1.9,5.01,5.01,0,0,1,5.612-1.814,4.451,4.451,0,0,1,1.645.972,9.609,9.609,0,0,1,1.235,1.583,6.561,6.561,0,0,0,1.333,1.551,3.908,3.908,0,0,0,1.947.772,4.444,4.444,0,0,0,2.168-.354,4.541,4.541,0,0,1,2.342-.422,1.764,1.764,0,0,1,1.076.6,2.633,2.633,0,0,1,.507,1.088,12.2,12.2,0,0,0,.486,2.18,1.658,1.658,0,0,0,.643.777,1.723,1.723,0,0,0,.982.187c.348-.016.7-.08,1.06-.1a2.04,2.04,0,0,1,1.068.192,2.312,2.312,0,0,1,1.088,1.7,6.432,6.432,0,0,1-.056,1.9,6.523,6.523,0,0,0-.062,1.723,3.975,3.975,0,0,0,.53,1.477,3.891,3.891,0,0,0,2.067,1.689,4.1,4.1,0,0,0,2.051.14,4.691,4.691,0,0,0,1.648-.669" transform="translate(-184.421 -4.58)" fill="#455a64"/>
        <path id="Path_4097" data-name="Path 4097" d="M410.3,15.733a.892.892,0,0,1,.277.255,1.518,1.518,0,0,1,.283,1.035,1.625,1.625,0,0,1-.253.754,1.73,1.73,0,0,1-.727.613,2.145,2.145,0,0,1-2.208-.267,2.83,2.83,0,0,1-.831-1.045,3.963,3.963,0,0,1-.326-1.4,8.738,8.738,0,0,0-.353-3.041,1.958,1.958,0,0,0-1.076-1.113,2.182,2.182,0,0,0-1.62.231,5.312,5.312,0,0,1-1.766.623,1.612,1.612,0,0,1-.965-.251,2.264,2.264,0,0,1-.685-.716,7.474,7.474,0,0,1-.667-1.782,4.125,4.125,0,0,0-.838-1.547,4.429,4.429,0,0,0-2.919-1.5,6.369,6.369,0,0,0-2.985.666,8.887,8.887,0,0,1-2.643.78,5.67,5.67,0,0,1-2.255-.263A5.551,5.551,0,0,1,386.212,7a4.018,4.018,0,0,1-1.039-1.005,7.784,7.784,0,0,0,1.1.926,5.659,5.659,0,0,0,1.514.711,5.592,5.592,0,0,0,2.2.22,8.812,8.812,0,0,0,2.581-.8,6.537,6.537,0,0,1,3.083-.7,4.646,4.646,0,0,1,3.084,1.569,4.358,4.358,0,0,1,.889,1.631,7.365,7.365,0,0,0,.642,1.725,1.585,1.585,0,0,0,1.426.853,5.19,5.19,0,0,0,1.677-.6,2.411,2.411,0,0,1,1.8-.233,2.178,2.178,0,0,1,1.206,1.243,4.161,4.161,0,0,1,.32,1.606c.018.526,0,1.031.03,1.513A3.77,3.77,0,0,0,407.011,17a2.663,2.663,0,0,0,.764.987,2,2,0,0,0,2.043.28,1.615,1.615,0,0,0,.685-.552,1.543,1.543,0,0,0,.255-.7,1.513,1.513,0,0,0-.227-1c-.135-.2-.245-.274-.235-.284" transform="translate(-191.845 -2.984)" fill="#263238"/>
        <path id="Path_4098" data-name="Path 4098" d="M355.709,47.874a1.676,1.676,0,0,0,.487,1,1.472,1.472,0,0,0,1.192.431,1.567,1.567,0,0,0,1.245-1.063,1.413,1.413,0,0,0-.046-.966,2.92,2.92,0,0,0-.608-.906,6.223,6.223,0,0,1-1.606-1.949,3.438,3.438,0,0,1,.134-2.79,4.1,4.1,0,0,1,.914-1.207,6.035,6.035,0,0,1,1.293-.853,8.155,8.155,0,0,0,1.279-.775,1.985,1.985,0,0,0,.743-1.141,2.4,2.4,0,0,0-.159-1.321,4.771,4.771,0,0,0-.661-1.142A9.864,9.864,0,0,1,358.5,33.1a3.772,3.772,0,0,1-.187-2.2,4.933,4.933,0,0,1,.768-1.662,9.306,9.306,0,0,0,.687-1.174,2.865,2.865,0,0,0,.255-1.114s.01.025.015.075a1.2,1.2,0,0,1,.012.226,2.29,2.29,0,0,1-.192.85,8.548,8.548,0,0,1-.657,1.21,4.881,4.881,0,0,0-.713,1.623,3.614,3.614,0,0,0,.206,2.089,9.926,9.926,0,0,0,1.4,2.034,4.941,4.941,0,0,1,.7,1.193,2.624,2.624,0,0,1,.176,1.454,2.233,2.233,0,0,1-.827,1.286,8.248,8.248,0,0,1-1.319.8,5.839,5.839,0,0,0-1.242.816,3.857,3.857,0,0,0-.861,1.131,3.218,3.218,0,0,0-.139,2.6,6.142,6.142,0,0,0,1.545,1.894,3.084,3.084,0,0,1,.636.977A1.6,1.6,0,0,1,358.8,48.3a1.716,1.716,0,0,1-1.4,1.147,1.617,1.617,0,0,1-1.682-1.268.891.891,0,0,1-.011-.3" transform="translate(-177.166 -13.423)" fill="#263238"/>
        <path id="Path_4099" data-name="Path 4099" d="M416.185,214.524H359.214a2.305,2.305,0,0,1-2.305-2.305V167.386a2.306,2.306,0,0,1,2.305-2.306h56.971a2.306,2.306,0,0,1,2.305,2.306v44.832a2.305,2.305,0,0,1-2.305,2.305" transform="translate(-177.768 -82.222)" fill="#f5f5f5"/>
        <path id="Path_4100" data-name="Path 4100" d="M416.054,214.394a3.645,3.645,0,0,0,.554-.083,2.3,2.3,0,0,0,1.314-.918,2.276,2.276,0,0,0,.4-1.12c.017-.442,0-.937,0-1.467,0-1.063-.008-2.288-.012-3.667-.01-5.523-.024-13.506-.042-23.369-.005-4.934-.01-10.337-.016-16.138a3.091,3.091,0,0,0-.106-1.048,2.2,2.2,0,0,0-1.441-1.425,3.45,3.45,0,0,0-1.077-.1l-4.566,0-9.532.006-42.44.011a2.18,2.18,0,0,0-2.045,1.426,3.58,3.58,0,0,0-.135,1.339v1.4q0,2.788,0,5.539,0,5.5,0,10.829c0,7.1-.005,13.947-.008,20.471q0,2.446,0,4.831V212.1a2.189,2.189,0,0,0,2.1,2.176l8.986.011,16.138.016,23.368.042,6.353.025,1.652.013c.372,0,.563.014.563.014s-.191.009-.563.014l-1.652.013-6.353.024-23.368.042-16.138.016h-9a2.42,2.42,0,0,1-2.005-1.22,2.455,2.455,0,0,1-.317-1.184q0-.592,0-1.188,0-2.384,0-4.831c0-6.523-.005-13.372-.008-20.471q0-5.324,0-10.829v-6.935a3.805,3.805,0,0,1,.152-1.429,2.442,2.442,0,0,1,2.29-1.6l42.44.01,9.532.006,4.566,0a3.631,3.631,0,0,1,1.142.108,2.419,2.419,0,0,1,1.584,1.57,3.324,3.324,0,0,1,.115,1.114c-.005,5.8-.011,11.2-.016,16.138-.018,9.863-.032,17.846-.041,23.369,0,1.379-.009,2.6-.012,3.667-.006.532.005,1.019-.016,1.472a2.315,2.315,0,0,1-1.768,2.058,1.852,1.852,0,0,1-.56.058" transform="translate(-177.637 -82.092)" fill="#263238"/>
        <rect id="Rectangle_2510" data-name="Rectangle 2510" width="42.181" height="56.12" transform="matrix(0.004, -1, 1, 0.004, 181.94, 128.909)" fill="#455a64"/>
        <g id="Group_3739" data-name="Group 3739" transform="translate(181.94 102.772)" opacity="0.2">
          <g id="Group_3738" data-name="Group 3738">
            <g id="Group_3737" data-name="Group 3737" clip-path="url(#clip-path-6)">
              <path id="Path_4101" data-name="Path 4101" d="M362.485,230.893,382.2,204.756l12.073,16.455,8.272-8.735L418.6,231.127Z" transform="translate(-362.485 -204.755)"/>
            </g>
          </g>
        </g>
        <g id="Group_3742" data-name="Group 3742" transform="translate(210.123 95.195)" opacity="0.2">
          <g id="Group_3741" data-name="Group 3741">
            <g id="Group_3740" data-name="Group 3740" clip-path="url(#clip-path-7)">
              <path id="Path_4102" data-name="Path 4102" d="M427.471,194.1a4.419,4.419,0,1,1-4.4-4.437,4.419,4.419,0,0,1,4.4,4.437" transform="translate(-418.634 -189.66)"/>
            </g>
          </g>
        </g>
        <path id="Path_4103" data-name="Path 4103" d="M363.863,78.073s-.308-.618,1.445-2.584,13.858-6.445,13.858-6.445,4.708,5.692,9.082,1.783a11.509,11.509,0,0,0,3.684-6.293s10.686-.6,10.912.1l2.861,13.434-5.02.029Z" transform="translate(-181.221 -32.024)" fill="#6370ff"/>
        <path id="Path_4104" data-name="Path 4104" d="M414.627,121.539l18.6-18.58L430.859,92.8l10.007-2.944s2.964,14.191,2.568,16.689c-.767,4.836-23.6,18.655-23.6,18.655Z" transform="translate(-206.515 -44.754)" fill="#ae7461"/>
        <path id="Path_4105" data-name="Path 4105" d="M440.52,64.57a13.52,13.52,0,0,1,8.13,4.018c3.855,3.97,8.467,14.38,8.467,14.38L444.05,86.153Z" transform="translate(-219.412 -32.161)" fill="#6370ff"/>
        <path id="Path_4106" data-name="Path 4106" d="M400.995,155.012l-5.222,3.26s-2.633,4.381-3.007,5.479a30.533,30.533,0,0,0-.74,3.849s1.137,1.038,1.6-.564l.535-1.228-.451,2.852s1.153.893,1.718-.624a18.413,18.413,0,0,0,.811-2.96l1.785-2.452-1.8,5.864s-.342,1.181.71,1.077c.416-.041,1.346-2.106,1.346-2.106s.762.991,1.4.1,3.109-4.391,3.109-4.391,3.332-4.118,3.343-4.227c0-.022,2.449-2.3,2.449-2.3l-5.21-3.658-2.256,1.916a.4.4,0,0,1-.12.114" transform="translate(-195.259 -76.197)" fill="#ae7461"/>
        <path id="Path_4107" data-name="Path 4107" d="M395.415,176.246a2.046,2.046,0,0,0,.076-.33c.044-.233.1-.538.17-.906.068-.389.149-.844.238-1.346.043-.254.089-.52.137-.8a4.281,4.281,0,0,1,.257-.814,14.639,14.639,0,0,1,1.517-2.616c.223-.318.413-.569.543-.743a1.99,1.99,0,0,0,.2-.276,2.018,2.018,0,0,0-.229.249c-.141.167-.34.411-.573.724a13.2,13.2,0,0,0-1.555,2.619,4.3,4.3,0,0,0-.262.836c-.045.276-.088.542-.13.8-.08.5-.153.96-.215,1.351-.055.37-.1.678-.135.912a1.872,1.872,0,0,0-.034.337" transform="translate(-196.945 -83.886)" fill="#6f4439"/>
        <path id="Path_4108" data-name="Path 4108" d="M406.913,171.773a.78.78,0,0,0-.121.172c-.072.114-.173.281-.3.488-.247.416-.583,1-.951,1.645l0,0,0,0-.047.115c-.293.717-.551,1.369-.733,1.843-.091.237-.163.43-.211.564a.111.111,0,1,0,.04.016c.06-.129.143-.317.243-.55.2-.466.471-1.113.763-1.831l.047-.115,0,.007c.367-.65.692-1.236.921-1.662.115-.213.206-.385.267-.505a.8.8,0,0,0,.085-.192" transform="translate(-201.464 -85.556)" fill="#6f4439"/>
        <path id="Path_4109" data-name="Path 4109" d="M350.7,87.163c.024.053.046.107.066.162a2.876,2.876,0,0,1,.158.779,2.517,2.517,0,0,0,.018.375,1.4,1.4,0,0,0,.1.221,3.768,3.768,0,0,1,.137,1.551,2.968,2.968,0,0,0,.287,1.661,1.1,1.1,0,0,0,1.46.45.747.747,0,0,0,.558.815,1.08,1.08,0,0,0,.995-.309,2.007,2.007,0,0,0,.5-.953.824.824,0,0,0,.821.8,1.271,1.271,0,0,0,1.042-.639,2.922,2.922,0,0,0,.359-1.217,14.424,14.424,0,0,1,.258-1.629s.535.086.779.109c.331.032.071.008.071.008a3.466,3.466,0,0,0,.512-.889c.341-.7.6-1.147.862-1.784.2-.477.322-.954.027-1.265-.711-.748-2.1.773-2.1.773-.2-.53-1.811-.616-2.125.089-.128-.389-.079-.613-.394-.875a1.3,1.3,0,0,0-1.144-.288.932.932,0,0,0-.695.9,1.534,1.534,0,0,0-2.78.458.624.624,0,0,0-.038.211.262.262,0,0,0,.034.093c.072.135.166.255.23.4" transform="translate(-174.545 -42.371)" fill="#ae7461"/>
        <path id="Path_4110" data-name="Path 4110" d="M346.3,87.354a1.225,1.225,0,0,0-.969.322,2,2,0,0,0-.3,1.344c.487.092.74.11,1.227.2.1.019.188-.007.274.054.225.16.188.7.279.958a.938.938,0,0,0,1.184.506,1.258,1.258,0,0,0,.76-1.121,1.944,1.944,0,0,0-.5-1.311,2.716,2.716,0,0,0-1.957-.955" transform="translate(-171.846 -43.508)" fill="#ae7461"/>
        <path id="Path_4111" data-name="Path 4111" d="M355.482,86.7a16.123,16.123,0,0,1,0,3.257,16.151,16.151,0,0,1-.331,3.241,16.135,16.135,0,0,1,0-3.258,16.152,16.152,0,0,1,.331-3.241" transform="translate(-176.857 -43.184)" fill="#6f4439"/>
        <path id="Path_4112" data-name="Path 4112" d="M360.007,87.337a9.179,9.179,0,0,1,.063,2.957,9.187,9.187,0,0,1-.568,2.9,24.068,24.068,0,0,1,.238-2.931,24.07,24.07,0,0,1,.267-2.928" transform="translate(-179.047 -43.5)" fill="#6f4439"/>
        <path id="Path_4113" data-name="Path 4113" d="M364.349,87.337a6.866,6.866,0,0,1-.04,2.442,9.612,9.612,0,0,1-.463,2.394,8.628,8.628,0,0,1,.134-2.434,13.544,13.544,0,0,1,.368-2.4" transform="translate(-181.201 -43.5)" fill="#6f4439"/>
        <path id="Path_4114" data-name="Path 4114" d="M348.969,87.86c0-.039.234-.092.571.062a1.832,1.832,0,0,1,.9,1.049,3.674,3.674,0,0,1,.223,1.342c-.04.4-.333.521-.34.469-.026-.037.133-.176.106-.476a6.568,6.568,0,0,0-.3-1.218,1.987,1.987,0,0,0-.7-.962c-.254-.179-.46-.215-.455-.266" transform="translate(-173.813 -43.74)" fill="#6f4439"/>
      </g>
    </g>
    <g id="Group_3746" data-name="Group 3746">
      <g id="Group_3745" data-name="Group 3745" clip-path="url(#clip-path)">
        <path id="Path_4115" data-name="Path 4115" d="M258.822,288.819H187.991a4.342,4.342,0,0,1-4.342-4.342V248.955a4.342,4.342,0,0,1,4.342-4.342h70.832a4.342,4.342,0,0,1,4.342,4.342v35.522a4.342,4.342,0,0,1-4.342,4.342" transform="translate(-91.471 -121.836)" fill="#fff"/>
        <path id="Path_4116" data-name="Path 4116" d="M258.692,288.689c0-.013.211,0,.615-.062a4.252,4.252,0,0,0,1.681-.63,4.3,4.3,0,0,0,1.774-2.264,5.042,5.042,0,0,0,.226-1.848q0-1.01-.006-2.149c-.01-6.077-.024-14.861-.042-25.715q0-2.036,0-4.167,0-1.065,0-2.154a6.8,6.8,0,0,0-.2-2.149,4.267,4.267,0,0,0-3.116-2.856,4.9,4.9,0,0,0-1.129-.1H257.32l-2.373,0-20.381.012-46.7.01a4.252,4.252,0,0,0-2.756,1.027A4.163,4.163,0,0,0,183.7,248.2a10.943,10.943,0,0,0-.052,1.51q0,.764,0,1.526v3.037q0,6.051,0,11.916t0,11.5q0,2.819,0,5.576c.007.456-.015.926.014,1.366a4.127,4.127,0,0,0,.291,1.289,4.223,4.223,0,0,0,1.656,1.99,4.3,4.3,0,0,0,2.481.661h2.641l5.174,0,9.893.007,17.759.016,25.714.042,6.991.025,1.818.013c.41,0,.619.014.619.014s-.21.009-.619.014l-1.818.013-6.991.025-25.714.042-17.759.016-9.893.007-5.174,0h-2.641a4.54,4.54,0,0,1-2.61-.7,4.464,4.464,0,0,1-1.753-2.1,4.361,4.361,0,0,1-.309-1.364c-.03-.472-.009-.919-.016-1.382q0-2.757,0-5.576,0-5.636,0-11.5t0-11.916q0-1.513,0-3.037v-1.526a11.123,11.123,0,0,1,.054-1.548,4.424,4.424,0,0,1,1.5-2.717,4.511,4.511,0,0,1,2.926-1.09l46.7.01,20.381.012,2.373,0h1.171a5.149,5.149,0,0,1,1.175.111,4.474,4.474,0,0,1,3.263,3,6.981,6.981,0,0,1,.2,2.21q0,1.089,0,2.154,0,2.131,0,4.167c-.018,10.854-.032,19.638-.042,25.715q0,1.138-.006,2.149a5.114,5.114,0,0,1-.242,1.873,4.349,4.349,0,0,1-1.82,2.284,4.206,4.206,0,0,1-1.706.612,3.152,3.152,0,0,1-.463.035c-.1,0-.156,0-.156,0" transform="translate(-91.341 -121.706)" fill="#263238"/>
        <rect id="Rectangle_2514" data-name="Rectangle 2514" width="11.811" height="2.228" transform="translate(100.661 130.246)" fill="#6370ff"/>
        <rect id="Rectangle_2515" data-name="Rectangle 2515" width="11.811" height="2.228" transform="translate(100.661 157.546)" fill="#6370ff"/>
        <rect id="Rectangle_2516" data-name="Rectangle 2516" width="20.335" height="2.228" transform="translate(100.661 135.769)" fill="#e0e0e0"/>
        <rect id="Rectangle_2517" data-name="Rectangle 2517" width="8.988" height="2.228" transform="translate(124.598 135.769)" fill="#6370ff"/>
        <rect id="Rectangle_2518" data-name="Rectangle 2518" width="5.909" height="2.228" transform="translate(154.457 135.769)" fill="#263238"/>
        <rect id="Rectangle_2519" data-name="Rectangle 2519" width="15.65" height="2.228" transform="translate(136.745 135.769)" fill="#455a64"/>
        <rect id="Rectangle_2520" data-name="Rectangle 2520" width="20.335" height="2.228" transform="translate(140.032 141.037)" fill="#e0e0e0"/>
        <rect id="Rectangle_2521" data-name="Rectangle 2521" width="8.988" height="2.228" transform="translate(127.442 141.037)" fill="#455a64"/>
        <rect id="Rectangle_2522" data-name="Rectangle 2522" width="5.909" height="2.228" transform="translate(100.661 141.037)" fill="#263238"/>
        <rect id="Rectangle_2523" data-name="Rectangle 2523" width="15.65" height="2.228" transform="translate(108.633 141.037)" fill="#6370ff"/>
        <rect id="Rectangle_2524" data-name="Rectangle 2524" width="20.335" height="2.228" transform="translate(100.661 146.447)" fill="#e0e0e0"/>
        <rect id="Rectangle_2525" data-name="Rectangle 2525" width="8.988" height="2.228" transform="translate(124.598 146.447)" fill="#263238"/>
        <rect id="Rectangle_2526" data-name="Rectangle 2526" width="5.909" height="2.228" transform="translate(154.457 146.448)" fill="#263238"/>
        <rect id="Rectangle_2527" data-name="Rectangle 2527" width="5.91" height="2.228" transform="translate(119.979 151.96)" fill="#6370ff"/>
        <rect id="Rectangle_2528" data-name="Rectangle 2528" width="15.65" height="2.228" transform="translate(136.745 146.447)" fill="#455a64"/>
        <rect id="Rectangle_2529" data-name="Rectangle 2529" width="15.65" height="2.228" transform="translate(100.234 151.96)" fill="#455a64"/>
      </g>
    </g>
    <g id="Group_3748" data-name="Group 3748">
      <g id="Group_3747" data-name="Group 3747" clip-path="url(#clip-path)">
        <path id="Path_4117" data-name="Path 4117" d="M454.075,307.316H429.319a4.066,4.066,0,0,1-4.067-4.067V279.443a4.066,4.066,0,0,1,4.067-4.066h24.756a4.067,4.067,0,0,1,4.067,4.066v23.806a4.067,4.067,0,0,1-4.067,4.067" transform="translate(-211.808 -137.158)" fill="#fafafa"/>
        <path id="Path_4118" data-name="Path 4118" d="M453.948,307.186a5.5,5.5,0,0,0,1.219-.214,4.179,4.179,0,0,0,1.307-.718,4.008,4.008,0,0,0,1.467-2.8c.031-.421.007-.879.011-1.349q0-1.418-.01-3.072c-.006-2.206-.012-4.716-.02-7.49s-.01-5.815-.016-9.077q0-1.223,0-2.488a8.171,8.171,0,0,0-.051-1.255,3.729,3.729,0,0,0-.382-1.192,3.931,3.931,0,0,0-1.8-1.765,3.806,3.806,0,0,0-1.25-.367c-.432-.045-.894-.026-1.352-.029l-23.872.01a3.933,3.933,0,0,0-3.934,3.823q0,3.091-.008,6.087c0,3.993,0,7.845-.007,11.515q0,2.752-.006,5.362c.006.431-.016.875.015,1.284a4.158,4.158,0,0,0,.289,1.2,3.981,3.981,0,0,0,3.768,2.433l2.317,0,4.356.008,13.144.042,3.574.025.929.013c.209,0,.317.014.317.014s-.107.009-.317.014l-.929.013-3.574.025-13.144.042-4.356.009-2.317,0a4.2,4.2,0,0,1-3.975-2.557,4.379,4.379,0,0,1-.308-1.267c-.034-.445-.012-.865-.019-1.3q0-2.607-.005-5.362c0-3.67-.005-7.521-.008-11.515q0-3,0-6.094a4.193,4.193,0,0,1,4.194-4.077l23.872.011c.459.005.91-.015,1.38.034a4.033,4.033,0,0,1,1.325.391,4.16,4.16,0,0,1,1.9,1.873,4.943,4.943,0,0,1,.451,2.55q0,1.264,0,2.488c-.006,3.263-.011,6.3-.016,9.077s-.014,5.284-.02,7.49q-.006,1.653-.011,3.072c-.009.474.012.92-.023,1.359a4.2,4.2,0,0,1-.292,1.2,4.017,4.017,0,0,1-3.5,2.518c-.21.006-.317,0-.317,0" transform="translate(-211.681 -137.028)" fill="#263238"/>
        <path id="Path_4119" data-name="Path 4119" d="M439.716,290.371h17.933l.029,6.007h-.858q-.422-3.223-2.414-4.361a7.432,7.432,0,0,0-3.345-.685v15.691a3.032,3.032,0,0,0,.575,2.183,3.689,3.689,0,0,0,2.393.539v.756H443.41v-.756a3.5,3.5,0,0,0,2.32-.546,3.033,3.033,0,0,0,.575-2.176V291.331a7.623,7.623,0,0,0-3.345.685q-2.138,1.167-2.414,4.361h-.858Z" transform="translate(-218.997 -144.627)" fill="#263238"/>
      </g>
    </g>
    <g id="Group_3750" data-name="Group 3750">
      <g id="Group_3749" data-name="Group 3749" clip-path="url(#clip-path)">
        <path id="Path_4120" data-name="Path 4120" d="M501.893,175.94V236a3.229,3.229,0,0,0,3.229,3.229h38.717A3.229,3.229,0,0,0,547.068,236V175.94a3.229,3.229,0,0,0-3.229-3.229H505.122a3.229,3.229,0,0,0-3.229,3.229" transform="translate(-249.981 -86.023)" fill="#fff"/>
        <path id="Path_4121" data-name="Path 4121" d="M501.776,175.835s0-.048,0-.142a2.356,2.356,0,0,1,.038-.42,3.2,3.2,0,0,1,.671-1.5,3.245,3.245,0,0,1,2.344-1.2c1.065-.022,2.286-.013,3.665-.021l23.342-.042,7.735-.009,4.114,0a3.348,3.348,0,0,1,3.26,2.478,3.823,3.823,0,0,1,.116,1.109q0,.548,0,1.1,0,1.105,0,2.228,0,2.245,0,4.56,0,4.63.005,9.521c0,13.03.007,27.354.011,42.39a3.386,3.386,0,0,1-1.193,2.571,3.31,3.31,0,0,1-1.278.672,4.983,4.983,0,0,1-1.419.122H537.66l-10.815,0-20.447-.008H505.18a3.7,3.7,0,0,1-1.23-.173,3.334,3.334,0,0,1-2.255-2.71,9.864,9.864,0,0,1-.035-1.193q0-1.174,0-2.332,0-4.63.006-8.98c.006-5.794.011-11.192.016-16.12.017-9.851.032-17.824.042-23.341.011-2.752.019-4.89.024-6.346.006-.721.01-1.273.013-1.65s.013-.562.013-.562.009.19.014.562.007.929.013,1.65c.006,1.456.014,3.594.025,6.346.01,5.517.024,13.489.042,23.341,0,4.928.01,10.326.016,16.12q0,4.346.006,8.98,0,1.157,0,2.332a9.729,9.729,0,0,0,.035,1.16,3.1,3.1,0,0,0,2.1,2.516,3.439,3.439,0,0,0,1.154.16H506.4l20.447-.008,10.815,0h5.532a4.75,4.75,0,0,0,1.35-.113,3.041,3.041,0,0,0,1.178-.619,3.122,3.122,0,0,0,1.1-2.371c0-15.036.007-29.36.01-42.39q0-4.886.006-9.521,0-2.314,0-4.56,0-1.123,0-2.228,0-.552,0-1.1a3.585,3.585,0,0,0-.107-1.053,3.134,3.134,0,0,0-3.05-2.324l-4.114,0-7.735-.009-23.342-.042c-1.377,0-2.6-.017-3.66,0a3.193,3.193,0,0,0-2.307,1.154,3.237,3.237,0,0,0-.686,1.47c-.069.364-.05.558-.065.557" transform="translate(-249.864 -85.918)" fill="#263238"/>
        <path id="Path_4122" data-name="Path 4122" d="M525.709,239.755h-.143a1.231,1.231,0,0,1-1.231-1.231V196.941a1.231,1.231,0,0,1,1.231-1.231h.143a1.231,1.231,0,0,1,1.231,1.231v41.584a1.231,1.231,0,0,1-1.231,1.231" transform="translate(-261.159 -97.478)" fill="#e0e0e0"/>
        <path id="Path_4123" data-name="Path 4123" d="M525.559,239.6a1.337,1.337,0,0,0,.82-.356c.538-.407.32-1.392.352-2.525-.011-2.323-.028-5.658-.048-9.771-.009-4.13-.02-9.041-.033-14.492,0-2.727-.005-5.59-.008-8.557q0-2.226,0-4.526,0-1.149,0-2.315a2.09,2.09,0,0,0-.036-.543,1.049,1.049,0,0,0-.24-.449,1.124,1.124,0,0,0-.946-.362,1.086,1.086,0,0,0-.883.457,1.065,1.065,0,0,0-.188.473c-.021.159-.008.374-.012.563q0,1.165,0,2.316,0,2.3,0,4.527c0,2.968-.006,5.831-.009,8.559-.012,5.451-.023,10.362-.032,14.492-.02,4.114-.036,7.448-.048,9.77q-.007.861-.013,1.532a1.2,1.2,0,0,0,.472.939,1.219,1.219,0,0,0,.621.246c.154.015.235.013.234.02a1.22,1.22,0,0,1-.237.011,1.2,1.2,0,0,1-.656-.228,1.262,1.262,0,0,1-.525-.986c0-.447-.01-.959-.015-1.534-.012-2.323-.028-5.657-.048-9.77-.009-4.13-.02-9.041-.032-14.492,0-2.728-.006-5.591-.009-8.559q0-2.226,0-4.527,0-1.15,0-2.316a5.679,5.679,0,0,1,.015-.6,1.357,1.357,0,0,1,.24-.605,1.387,1.387,0,0,1,1.128-.583,1.428,1.428,0,0,1,1.169.462,1.351,1.351,0,0,1,.307.574,2.368,2.368,0,0,1,.045.618q0,1.166,0,2.315,0,2.3,0,4.526c0,2.967-.006,5.83-.009,8.557-.012,5.451-.023,10.361-.032,14.492-.02,4.113-.037,7.448-.048,9.771q-.008.862-.014,1.533a1.29,1.29,0,0,1-.414,1.036,1.1,1.1,0,0,1-.861.312" transform="translate(-261.009 -97.325)" fill="#263238"/>
        <path id="Path_4124" data-name="Path 4124" d="M545.674,239.755h-.142a1.231,1.231,0,0,1-1.231-1.231V196.941a1.231,1.231,0,0,1,1.231-1.231h.142a1.231,1.231,0,0,1,1.231,1.231v41.584a1.231,1.231,0,0,1-1.231,1.231" transform="translate(-271.103 -97.478)" fill="#e0e0e0"/>
        <path id="Path_4125" data-name="Path 4125" d="M545.524,239.6a1.337,1.337,0,0,0,.82-.356c.537-.407.32-1.392.352-2.525-.011-2.323-.028-5.658-.048-9.771-.009-4.13-.02-9.041-.032-14.492,0-2.727-.006-5.59-.009-8.557q0-2.226,0-4.526,0-1.149,0-2.315a2.078,2.078,0,0,0-.036-.543,1.046,1.046,0,0,0-.24-.449,1.123,1.123,0,0,0-.945-.362,1.087,1.087,0,0,0-.884.457,1.064,1.064,0,0,0-.188.473c-.021.159-.008.374-.012.563q0,1.165,0,2.316,0,2.3,0,4.527c0,2.968-.006,5.831-.009,8.559-.012,5.451-.023,10.362-.032,14.492-.02,4.114-.036,7.448-.048,9.77q-.007.861-.013,1.532a1.2,1.2,0,0,0,.472.939,1.219,1.219,0,0,0,.622.246c.153.015.234.013.234.02a1.219,1.219,0,0,1-.236.011,1.2,1.2,0,0,1-.655-.228,1.26,1.26,0,0,1-.526-.986c0-.447-.009-.959-.015-1.534-.011-2.323-.028-5.657-.048-9.77-.009-4.13-.02-9.041-.032-14.492,0-2.728-.005-5.591-.008-8.559q0-2.226,0-4.527,0-1.15,0-2.316a5.7,5.7,0,0,1,.015-.6,1.358,1.358,0,0,1,.24-.605,1.387,1.387,0,0,1,1.129-.583,1.428,1.428,0,0,1,1.169.462,1.358,1.358,0,0,1,.307.574,2.374,2.374,0,0,1,.045.618q0,1.166,0,2.315,0,2.3,0,4.526c0,2.967-.005,5.83-.008,8.557-.012,5.451-.023,10.361-.032,14.492-.02,4.113-.036,7.448-.048,9.771q-.008.862-.014,1.533a1.289,1.289,0,0,1-.414,1.036,1.1,1.1,0,0,1-.861.312" transform="translate(-270.953 -97.325)" fill="#263238"/>
        <path id="Path_4126" data-name="Path 4126" d="M565.639,239.755H565.5a1.231,1.231,0,0,1-1.231-1.231V196.941a1.231,1.231,0,0,1,1.231-1.231h.143a1.231,1.231,0,0,1,1.231,1.231v41.584a1.231,1.231,0,0,1-1.231,1.231" transform="translate(-281.047 -97.478)" fill="#e0e0e0"/>
        <path id="Path_4127" data-name="Path 4127" d="M565.489,239.6a1.337,1.337,0,0,0,.82-.356c.538-.407.32-1.392.352-2.525-.011-2.323-.028-5.658-.048-9.771-.009-4.13-.02-9.041-.032-14.492,0-2.727-.006-5.59-.009-8.557q0-2.226,0-4.526,0-1.149,0-2.315a2.106,2.106,0,0,0-.036-.543,1.054,1.054,0,0,0-.24-.449,1.124,1.124,0,0,0-.946-.362,1.087,1.087,0,0,0-.883.457,1.064,1.064,0,0,0-.188.473c-.021.159-.008.374-.012.563q0,1.165,0,2.316,0,2.3,0,4.527c0,2.968-.006,5.831-.009,8.559-.012,5.451-.023,10.362-.032,14.492-.02,4.114-.036,7.448-.048,9.77q-.007.861-.013,1.532a1.2,1.2,0,0,0,.472.939,1.22,1.22,0,0,0,.622.246c.153.015.234.013.234.02a1.218,1.218,0,0,1-.236.011,1.2,1.2,0,0,1-.655-.228,1.261,1.261,0,0,1-.526-.986c0-.447-.009-.959-.015-1.534-.011-2.323-.028-5.657-.048-9.77-.009-4.13-.02-9.041-.032-14.492,0-2.728-.006-5.591-.008-8.559q0-2.226,0-4.527,0-1.15,0-2.316a5.7,5.7,0,0,1,.015-.6,1.357,1.357,0,0,1,.24-.605,1.387,1.387,0,0,1,1.128-.583,1.43,1.43,0,0,1,1.17.462,1.362,1.362,0,0,1,.307.574,2.374,2.374,0,0,1,.045.618q0,1.166,0,2.315,0,2.3,0,4.526c0,2.967-.006,5.83-.009,8.557-.012,5.451-.023,10.361-.032,14.492-.02,4.113-.037,7.448-.048,9.771q-.008.862-.014,1.533a1.289,1.289,0,0,1-.414,1.036,1.1,1.1,0,0,1-.861.312" transform="translate(-280.897 -97.325)" fill="#263238"/>
        <path id="Path_4128" data-name="Path 4128" d="M523.611,231.811h-.477a2.533,2.533,0,0,1,0-5.066h.477a2.533,2.533,0,1,1,0,5.066" transform="translate(-259.298 -112.936)" fill="#6370ff"/>
        <path id="Path_4129" data-name="Path 4129" d="M544.88,250.838H544.4a2.533,2.533,0,1,1,0-5.066h.477a2.533,2.533,0,1,1,0,5.066" transform="translate(-269.892 -122.413)" fill="#6370ff"/>
        <path id="Path_4130" data-name="Path 4130" d="M564.121,214.978h-.477a2.533,2.533,0,0,1-2.533-2.533h0a2.533,2.533,0,0,1,2.533-2.533h.477a2.533,2.533,0,0,1,0,5.066" transform="translate(-279.475 -104.552)" fill="#6370ff"/>
      </g>
    </g>
    <g id="Group_3758" data-name="Group 3758">
      <g id="Group_3757" data-name="Group 3757" clip-path="url(#clip-path)">
        <path id="Path_4131" data-name="Path 4131" d="M547.6,96.816h-53.67a4.182,4.182,0,0,1-4.182-4.182V38.964a4.182,4.182,0,0,1,4.182-4.182H547.6a4.182,4.182,0,0,1,4.182,4.182v53.67a4.182,4.182,0,0,1-4.182,4.182" transform="translate(-243.931 -17.324)" fill="#fff"/>
        <path id="Path_4132" data-name="Path 4132" d="M547.468,96.687c0-.013.212,0,.617-.064a4.153,4.153,0,0,0,3.367-2.992,6.362,6.362,0,0,0,.153-1.869q0-1.014-.006-2.157c-.01-6.1-.024-14.922-.042-25.82,0-5.45-.011-11.421-.016-17.829q0-2.4,0-4.888c-.007-.825.012-1.67-.015-2.5a4.059,4.059,0,0,0-2.927-3.64,9.845,9.845,0,0,0-2.567-.161l-5.337,0-46.889.011a4.061,4.061,0,0,0-4.039,3.691c-.037,2.03-.01,4.087-.019,6.107q0,6.076,0,11.964c0,7.844-.005,15.41-.008,22.617q0,5.406-.006,10.532,0,1.281,0,2.542a4.2,4.2,0,0,0,.57,2.34,3.847,3.847,0,0,0,.756.931,3.79,3.79,0,0,0,.985.667,4.667,4.667,0,0,0,2.313.405l17.83.016L538,96.636l7.02.025,1.825.013c.411,0,.622.014.622.014s-.211.009-.622.014l-1.825.013-7.02.025-25.817.042-17.83.016a4.892,4.892,0,0,1-2.409-.424,4,4,0,0,1-1.039-.7,4.085,4.085,0,0,1-.8-.98,4.434,4.434,0,0,1-.6-2.454q0-1.262,0-2.542,0-5.121-.006-10.532c0-7.207,0-14.773-.008-22.617q0-5.883,0-11.964c.009-2.03-.02-4.055.019-6.131a4.321,4.321,0,0,1,4.3-3.929l46.889.01,5.337,0h1.312a4.555,4.555,0,0,1,1.32.172,4.29,4.29,0,0,1,3.088,3.85c.027.855.006,1.679.013,2.511q0,2.484,0,4.888c-.006,6.409-.011,12.379-.016,17.829-.018,10.9-.032,19.718-.042,25.82q0,1.143-.006,2.157a6.411,6.411,0,0,1-.168,1.89,4.232,4.232,0,0,1-1.734,2.36,4.154,4.154,0,0,1-1.7.638,3.111,3.111,0,0,1-.465.037c-.1,0-.157,0-.157,0" transform="translate(-243.8 -17.195)" fill="#263238"/>
        <path id="Path_4133" data-name="Path 4133" d="M545.209,75.83h-6.5a5.717,5.717,0,0,1-5.717-5.717V56.1h17.933V70.113a5.717,5.717,0,0,1-5.717,5.717" transform="translate(-265.471 -27.944)" fill="#e0e0e0"/>
        <path id="Path_4134" data-name="Path 4134" d="M545.026,75.645a9.412,9.412,0,0,0,1.66-.306,5.912,5.912,0,0,0,1.756-.939,5.548,5.548,0,0,0,1.65-2.075,6.549,6.549,0,0,0,.523-3.225c-.006-1.217-.012-2.527-.019-3.918-.008-2.79-.017-5.906-.027-9.264l.175.175-12.213.012-5.719,0,.184-.184c-.008,4.184-.015,8.117-.022,11.67,0,.884-.018,1.757,0,2.58a5.571,5.571,0,0,0,3.666,5.022,9.941,9.941,0,0,0,3.469.359l2.662.03,1.672.032.433.017a.477.477,0,0,1,.147.017.478.478,0,0,1-.147.017l-.433.017-1.672.032-2.662.03-1.672.009a5.831,5.831,0,0,1-5.77-5.567c-.028-.85-.013-1.7-.021-2.593-.007-3.553-.014-7.487-.022-11.67v-.184h.185l5.719,0,12.213.012h.176v.175c-.01,3.358-.019,6.474-.027,9.264-.007,1.391-.013,2.7-.019,3.918a6.736,6.736,0,0,1-.586,3.317,5.667,5.667,0,0,1-1.743,2.116,5.853,5.853,0,0,1-1.824.916,4.68,4.68,0,0,1-1.694.2" transform="translate(-265.288 -27.759)" fill="#263238"/>
        <path id="Path_4135" data-name="Path 4135" d="M533.176,56.352a13.7,13.7,0,0,0,8.527,3.085,15.987,15.987,0,0,0,9.314-3.107Z" transform="translate(-265.562 -28.057)" fill="#6370ff"/>
        <path id="Path_4136" data-name="Path 4136" d="M552.47,61.832a1.689,1.689,0,0,1,.131.385l.3,1.123,1.054,4.146.709,2.868c.12.524.272,1.029.377,1.618a3.3,3.3,0,0,1-.239,1.8,3.4,3.4,0,0,1-1.215,1.47,3.447,3.447,0,0,1-1.9.573l-4.023.022-2.042.008a9.111,9.111,0,0,1-2.01-.119,5.712,5.712,0,0,1-4.158-3.5c-.208-.54-.374-1.054-.554-1.556-.347-1-.672-1.933-.97-2.79l-1.38-4.05-.357-1.107a1.7,1.7,0,0,1-.1-.4,1.664,1.664,0,0,1,.172.369l.423,1.084,1.491,4.009,1.013,2.775a8.968,8.968,0,0,0,1.436,2.981,5.368,5.368,0,0,0,3.058,1.817,8.836,8.836,0,0,0,1.937.107l2.04-.01,4.021-.015a3.017,3.017,0,0,0,2.806-1.814,2.979,2.979,0,0,0,.229-1.614c-.087-.527-.242-1.079-.353-1.591-.238-1.031-.461-1.994-.665-2.878l-.938-4.174c-.1-.461-.174-.838-.236-1.139a1.658,1.658,0,0,1-.058-.4" transform="translate(-267.014 -30.797)" fill="#263238"/>
        <path id="Path_4137" data-name="Path 4137" d="M536.4,62.395a.991.991,0,1,1-.991-.991.991.991,0,0,1,.991.991" transform="translate(-266.179 -30.584)" fill="#263238"/>
        <path id="Path_4138" data-name="Path 4138" d="M557.663,56.461c.093.422-.478.821-.471,1.253a1.936,1.936,0,0,1-1.249,1.844.6.6,0,0,0-.168.093,1.85,1.85,0,0,0-.516,1.237l-.33,2.251a3.809,3.809,0,0,1-.373,1.354,1.3,1.3,0,0,1-1.137.71c-.678-.043-1.1-.777-1.2-1.45-.129-.842.035-1.745-.541-2.475a1.016,1.016,0,0,0-1.123-.374c-1.03.376-.4,2.011-1.376,2.388a.9.9,0,0,1-.824-.12,2.353,2.353,0,0,1-.8-1.5q-.328-1.322-.657-2.644Z" transform="translate(-272.394 -28.122)" fill="#6370ff"/>
        <path id="Path_4139" data-name="Path 4139" d="M517.363,114.868a5.544,5.544,0,1,1-5.544-5.544,5.544,5.544,0,0,1,5.544,5.544" transform="translate(-252.163 -54.452)" fill="#6370ff"/>
        <path id="Path_4140" data-name="Path 4140" d="M551.587,114.868a5.544,5.544,0,1,1-5.544-5.544,5.544,5.544,0,0,1,5.544,5.544" transform="translate(-269.209 -54.452)" fill="#6370ff"/>
        <path id="Path_4141" data-name="Path 4141" d="M585.811,114.868a5.544,5.544,0,1,1-5.544-5.544,5.544,5.544,0,0,1,5.544,5.544" transform="translate(-286.255 -54.452)" fill="#6370ff"/>
        <g id="Group_3753" data-name="Group 3753" transform="translate(254.112 54.872)" opacity="0">
          <g id="Group_3752" data-name="Group 3752">
            <g id="Group_3751" data-name="Group 3751" clip-path="url(#clip-path-12)">
              <path id="Path_4142" data-name="Path 4142" d="M517.363,114.868a5.544,5.544,0,1,1-5.544-5.544,5.544,5.544,0,0,1,5.544,5.544" transform="translate(-506.275 -109.324)" fill="#fff"/>
            </g>
          </g>
        </g>
        <g id="Group_3756" data-name="Group 3756" transform="translate(288.468 54.872)" opacity="0.2">
          <g id="Group_3755" data-name="Group 3755">
            <g id="Group_3754" data-name="Group 3754" clip-path="url(#clip-path-12)">
              <path id="Path_4143" data-name="Path 4143" d="M585.811,114.868a5.544,5.544,0,1,1-5.544-5.544,5.544,5.544,0,0,1,5.544,5.544" transform="translate(-574.723 -109.324)"/>
            </g>
          </g>
        </g>
        <path id="Path_4144" data-name="Path 4144" d="M517.227,114.756a11.935,11.935,0,0,0-.225-1.341,5.526,5.526,0,0,0-2.023-2.989,5.43,5.43,0,0,0-5.141-.758,5.433,5.433,0,0,0-2.511,1.891,5.391,5.391,0,0,0,0,6.394,5.428,5.428,0,0,0,2.511,1.891,5.429,5.429,0,0,0,5.141-.759A5.526,5.526,0,0,0,517,116.1a11.914,11.914,0,0,0,.225-1.341,4.3,4.3,0,0,1-.122,1.367,5.594,5.594,0,0,1-4.378,4.191,5.663,5.663,0,0,1-2.976-.232,5.668,5.668,0,0,1-2.642-1.97,5.639,5.639,0,0,1,0-6.713,5.666,5.666,0,0,1,2.641-1.969,5.661,5.661,0,0,1,2.976-.232,5.593,5.593,0,0,1,4.378,4.191,4.3,4.3,0,0,1,.122,1.367" transform="translate(-252.027 -54.34)" fill="#263238"/>
        <path id="Path_4145" data-name="Path 4145" d="M551.451,114.756a11.953,11.953,0,0,0-.225-1.341,5.525,5.525,0,0,0-2.023-2.989,5.43,5.43,0,0,0-5.141-.758,5.434,5.434,0,0,0-2.511,1.891,5.391,5.391,0,0,0,0,6.394,5.428,5.428,0,0,0,2.511,1.891,5.429,5.429,0,0,0,5.141-.759,5.526,5.526,0,0,0,2.023-2.988,11.932,11.932,0,0,0,.225-1.341,4.3,4.3,0,0,1-.122,1.367,5.594,5.594,0,0,1-4.378,4.191,5.663,5.663,0,0,1-2.976-.232,5.669,5.669,0,0,1-2.642-1.97,5.638,5.638,0,0,1,0-6.713,5.665,5.665,0,0,1,2.641-1.969,5.661,5.661,0,0,1,2.976-.232,5.593,5.593,0,0,1,4.378,4.191,4.3,4.3,0,0,1,.122,1.367" transform="translate(-269.073 -54.34)" fill="#263238"/>
        <path id="Path_4146" data-name="Path 4146" d="M585.656,114.756a11.905,11.905,0,0,0-.225-1.341,5.525,5.525,0,0,0-2.023-2.989,5.43,5.43,0,0,0-5.141-.758,5.434,5.434,0,0,0-2.511,1.891,5.391,5.391,0,0,0,0,6.394,5.426,5.426,0,0,0,2.511,1.891,5.429,5.429,0,0,0,5.141-.759,5.523,5.523,0,0,0,2.023-2.988,11.885,11.885,0,0,0,.225-1.341,4.3,4.3,0,0,1-.122,1.367,5.518,5.518,0,0,1-2.009,3.117,5.576,5.576,0,0,1-2.369,1.074,5.663,5.663,0,0,1-2.976-.232,5.669,5.669,0,0,1-2.642-1.97,5.638,5.638,0,0,1,0-6.713,5.664,5.664,0,0,1,2.641-1.969,5.662,5.662,0,0,1,2.976-.232,5.572,5.572,0,0,1,2.369,1.074,5.516,5.516,0,0,1,2.009,3.117,4.3,4.3,0,0,1,.122,1.367" transform="translate(-286.11 -54.34)" fill="#263238"/>
      </g>
    </g>
    <g id="Group_3769" data-name="Group 3769">
      <g id="Group_3768" data-name="Group 3768" clip-path="url(#clip-path)">
        <path id="Path_4147" data-name="Path 4147" d="M95.923,148.509a2.459,2.459,0,0,0,1.97,1.27,6.036,6.036,0,0,0,.869-.2c.27.187.145,1.143-.065,1.4a5.163,5.163,0,0,1-.64.585,3.182,3.182,0,0,0,2.81.063,4.935,4.935,0,0,1-3.168,3.767,1.732,1.732,0,0,1-1.583-.067,1.992,1.992,0,0,1-.619-1.276,21.6,21.6,0,0,1-.378-5.309Z" transform="translate(-47.361 -73.969)" fill="#263238"/>
        <path id="Path_4148" data-name="Path 4148" d="M53.522,153.1l-1.4,22.745c-.238,3.868.2,9.6,6.334,9.7,5.327-.316,6.98-5.263,7.2-8.873.1-1.712.194-3.14.216-3.315,0,0,5.824-.188,6.6-5.893.373-2.757.679-8.5.895-13.7a10.723,10.723,0,0,0-9.412-11.083l-.551-.068c-5.987-.382-9.657,4.489-9.873,10.485" transform="translate(-25.936 -71.023)" fill="#ffc09d"/>
        <path id="Path_4149" data-name="Path 4149" d="M72.454,200.771a13.9,13.9,0,0,1-7.169-3.112s1.3,4.4,7.067,4.581Z" transform="translate(-32.517 -98.449)" fill="#ff9b6c"/>
        <path id="Path_4150" data-name="Path 4150" d="M70.912,166.763c-.119.11-.755-.455-1.714-.528s-1.7.362-1.793.234c-.047-.057.082-.264.406-.468a2.4,2.4,0,0,1,1.447-.334,2.319,2.319,0,0,1,1.353.569c.277.255.36.478.3.527" transform="translate(-33.568 -82.511)" fill="#263238"/>
        <path id="Path_4151" data-name="Path 4151" d="M72.943,172.673a.778.778,0,0,1-.84.688.744.744,0,0,1-.71-.794.778.778,0,0,1,.839-.688.744.744,0,0,1,.711.794" transform="translate(-35.558 -85.608)" fill="#263238"/>
        <path id="Path_4152" data-name="Path 4152" d="M78.537,174.09a5.864,5.864,0,0,1,1.458-.082c.227,0,.445-.014.5-.163a1.151,1.151,0,0,0-.068-.683q-.217-.853-.454-1.789a29.537,29.537,0,0,1-.941-4.648,29.647,29.647,0,0,1,1.313,4.562q.222.94.425,1.8a1.311,1.311,0,0,1,.008.894.566.566,0,0,1-.409.283,1.562,1.562,0,0,1-.387.007,5.771,5.771,0,0,1-1.446-.176" transform="translate(-39.117 -83.041)" fill="#263238"/>
        <path id="Path_4153" data-name="Path 4153" d="M71.629,160.869c-.123.2-.86-.076-1.778-.165-.916-.109-1.7,0-1.773-.219-.032-.1.139-.277.477-.419a3.016,3.016,0,0,1,2.705.293c.3.21.424.416.369.51" transform="translate(-33.906 -79.628)" fill="#263238"/>
        <path id="Path_4154" data-name="Path 4154" d="M88.825,163.824c-.109.169-.849-.061-1.755-.134-.905-.089-1.665.007-1.752-.18-.038-.089.119-.237.443-.359A3.187,3.187,0,0,1,87.114,163a3.283,3.283,0,0,1,1.319.395c.3.178.441.353.393.434" transform="translate(-42.492 -81.178)" fill="#263238"/>
        <path id="Path_4155" data-name="Path 4155" d="M50.394,171c-.092-.054-3.784-1.643-4.138,2.279s3.656,3.468,3.673,3.356.465-5.635.465-5.635" transform="translate(-23.028 -84.989)" fill="#ffc09d"/>
        <path id="Path_4156" data-name="Path 4156" d="M49.861,176.263c-.016-.014-.073.042-.193.084a.688.688,0,0,1-.512-.036,1.7,1.7,0,0,1-.645-1.588,2.269,2.269,0,0,1,.28-.961.793.793,0,0,1,.562-.478.35.35,0,0,1,.386.223c.043.114.011.191.031.2s.09-.058.073-.223a.436.436,0,0,0-.132-.26.515.515,0,0,0-.369-.134.964.964,0,0,0-.768.543,2.332,2.332,0,0,0-.336,1.072,1.781,1.781,0,0,0,.844,1.783.734.734,0,0,0,.634-.047c.131-.086.159-.172.146-.18" transform="translate(-24.023 -86.213)" fill="#ff9b6c"/>
        <path id="Path_4157" data-name="Path 4157" d="M44.426,146.666a19.255,19.255,0,0,0,1.683-4.514c.524-1.524,1.464-3.084,3.007-3.55l.034.017a4.141,4.141,0,0,1,4.139.594,5.381,5.381,0,0,1,4.266-3.982,13.321,13.321,0,0,1,7.075.908,14.61,14.61,0,0,1,4.466,3.833,19.285,19.285,0,0,1,1.885,2.529l1.47,5.438-1.623,2.734c-.1.187-.2.373-.32.557v-.013l-1.45,5.706c-.006-1.617.208-7.079.2-8.7a9.008,9.008,0,0,1-6.266-3.277c-.833-1.019-1.465-2.276-2.615-2.917-1.482-.827-3.32-.369-4.949.108l.071-.058a7.206,7.206,0,0,0-2.3,1.493,22.394,22.394,0,0,1-1.434,9.417c-.173.45-.629,1.372-1.087,1.524-.9.3-1.092-.612-1.6-1.116a2.34,2.34,0,0,0-1.586-.474,35.3,35.3,0,0,1-.877-4.131,3.587,3.587,0,0,1-1.655.029l.567-1.19a1.874,1.874,0,0,1-.721.285.64.64,0,0,1-.655-.325c-.135-.309.086-.646.271-.928" transform="translate(-21.972 -67.276)" fill="#263238"/>
        <path id="Path_4158" data-name="Path 4158" d="M57.118,144.81a4.889,4.889,0,0,0-.6.5,4.119,4.119,0,0,0-.973,1.86,7.218,7.218,0,0,0-.218,1.449c-.028.528-.014,1.1,0,1.693a14.988,14.988,0,0,1-.05,1.882,6.581,6.581,0,0,1-.178.985,2.073,2.073,0,0,1-.452.942.867.867,0,0,1-.822.232,1.291,1.291,0,0,1-.708-.447,2.971,2.971,0,0,1-.48-1.484l.119.02A4.812,4.812,0,0,1,52,153.6a1.709,1.709,0,0,1-1.145.552,1.1,1.1,0,0,1-.586-.133.954.954,0,0,1-.382-.415.981.981,0,0,1-.1-.514.708.708,0,0,1,.206-.437l.058.057a3.7,3.7,0,0,1-1.277.863,3.3,3.3,0,0,1-.388.13.646.646,0,0,1-.139.027.694.694,0,0,1,.132-.049c.087-.031.216-.076.378-.148a3.81,3.81,0,0,0,1.234-.879l.058.057a.736.736,0,0,0-.08.85.863.863,0,0,0,.346.368,1,1,0,0,0,.531.113,1.6,1.6,0,0,0,1.064-.526,4.742,4.742,0,0,0,.729-1.142l.091-.18.028.2a2.88,2.88,0,0,0,.457,1.418,1.16,1.16,0,0,0,.633.4.73.73,0,0,0,.7-.2,1.959,1.959,0,0,0,.418-.881,6.579,6.579,0,0,0,.176-.965,15.312,15.312,0,0,0,.057-1.866c-.008-.6-.019-1.167.015-1.7a7.21,7.21,0,0,1,.238-1.468,4.059,4.059,0,0,1,1.027-1.871,2.326,2.326,0,0,1,.638-.461" transform="translate(-24.031 -72.126)" fill="#455a64"/>
        <path id="Path_4159" data-name="Path 4159" d="M83.6,148.222s-.015.015-.048.037l-.149.1a1.914,1.914,0,0,1-.25.144,3,3,0,0,1-.357.166,5.088,5.088,0,0,1-2.475.321,6.5,6.5,0,0,1-3.4-1.448,11.247,11.247,0,0,1-2.8-3.571c-.383-.714-.688-1.443-1.03-2.118a7.582,7.582,0,0,0-1.195-1.807,3.912,3.912,0,0,0-1.6-1.084,2.793,2.793,0,0,0-.866-.143,3.067,3.067,0,0,0-.805.114A3.319,3.319,0,0,0,66.7,140.4a3.958,3.958,0,0,0-.338.845.2.2,0,0,1,.008-.06c.01-.047.022-.1.036-.174a2.9,2.9,0,0,1,.249-.636,3.269,3.269,0,0,1,.685-.838,3.361,3.361,0,0,1,1.253-.695,3.172,3.172,0,0,1,.831-.126,2.9,2.9,0,0,1,.9.141,4.017,4.017,0,0,1,1.657,1.1,7.665,7.665,0,0,1,1.222,1.833c.346.681.652,1.407,1.031,2.115A11.263,11.263,0,0,0,77,147.443a6.457,6.457,0,0,0,3.329,1.45,5.17,5.17,0,0,0,2.445-.275,8.1,8.1,0,0,0,.824-.4" transform="translate(-33.054 -69.089)" fill="#455a64"/>
        <path id="Path_4160" data-name="Path 4160" d="M88.311,168.342c-.119.11-.755-.455-1.714-.528s-1.7.363-1.793.234c-.047-.058.082-.264.406-.468a2.4,2.4,0,0,1,1.447-.335,2.323,2.323,0,0,1,1.353.569c.277.255.36.478.3.527" transform="translate(-42.234 -83.297)" fill="#263238"/>
        <path id="Path_4161" data-name="Path 4161" d="M88.477,174.2a.778.778,0,0,1-.84.687.744.744,0,0,1-.71-.794.778.778,0,0,1,.84-.688.744.744,0,0,1,.711.794" transform="translate(-43.294 -86.366)" fill="#263238"/>
        <path id="Path_4162" data-name="Path 4162" d="M75.864,185.319c0,.033-.225.1-.6.052a2.3,2.3,0,0,1-1.96-1.956c-.049-.375.017-.6.05-.6s.05.226.143.561a2.5,2.5,0,0,0,1.806,1.8c.335.092.56.1.562.142" transform="translate(-36.502 -91.055)" fill="#263238"/>
        <path id="Path_4163" data-name="Path 4163" d="M110.838,212.7l-15.1,13.353-14.573-11.76-1.1,15.449,9.038,7.236c3.74,1.457,7.81,2.179,10.78-.521L116.611,219.5Z" transform="translate(-39.88 -105.938)" fill="#6370ff"/>
        <path id="Path_4164" data-name="Path 4164" d="M17.473,212.874A11.871,11.871,0,0,1,23.021,204c.759-.447,7.033-3.185,7.033-3.185l1.866-2.672,11.45,7.3,1.444,1.319,1.177-2.83,1.394,2.119-.589-.1.165,1.081.711,4.693.5,13.447c-.007-.143.214,4.725.077,6.97-.517,8.475-1.962,30.076-2.473,31.6a2.768,2.768,0,0,1-2.42,1.94l-29.935-8.427c-1.69-.144-3.23-4.74-.7-6.218Z" transform="translate(-5.672 -98.692)" fill="#6370ff"/>
        <g id="Group_3761" data-name="Group 3761" transform="translate(14.195 118.269)" opacity="0.3">
          <g id="Group_3760" data-name="Group 3760">
            <g id="Group_3759" data-name="Group 3759" clip-path="url(#clip-path-15)">
              <path id="Path_4165" data-name="Path 4165" d="M28.281,235.631s12.467,23.246,16.735,25.535S56.168,262,56.168,262v-1.885Z" transform="translate(-28.281 -235.631)"/>
            </g>
          </g>
        </g>
        <path id="Path_4166" data-name="Path 4166" d="M35.187,215.137c1.728.779,17.724,21.8,17.724,21.8l22.644-.188,1.473,10.6s-23.74,3.435-29.275,2.225-21.727-24.739-22.718-26.331c-1.572-2.526-.232-6.523,2.2-8.646" transform="translate(-12.132 -106.883)" fill="#6370ff"/>
        <path id="Path_4167" data-name="Path 4167" d="M27.178,214.593s-.08.088-.245.25a7.954,7.954,0,0,0-.684.762,8.9,8.9,0,0,0-1.7,3.507,6.068,6.068,0,0,0-.036,2.8,9.041,9.041,0,0,0,1.631,2.922c1.389,2,3,4.258,4.826,6.721s3.861,5.134,6.145,7.921c1.143,1.392,2.347,2.814,3.638,4.233a41.043,41.043,0,0,0,4.221,4.124,8.442,8.442,0,0,0,2.574,1.557l.178.058.191.027.382.053c.256.031.509.082.769.1l1.574.07c2.116.024,4.279-.1,6.477-.249,4.4-.328,8.937-.821,13.578-1.4q3.17-.4,6.259-.832l-.11.147c-.5-3.628-.994-7.169-1.47-10.6l.126.109-22.643.167H52.8L52.772,237c-5.176-6.8-9.5-12.339-12.582-16.144-1.54-1.9-2.769-3.369-3.639-4.335-.434-.485-.779-.843-1.026-1.069a3.9,3.9,0,0,0-.394-.317,1.624,1.624,0,0,1,.415.293,13.9,13.9,0,0,1,1.051,1.05c.887.954,2.131,2.41,3.686,4.3,3.107,3.784,7.461,9.308,12.657,16.092l-.085-.042,22.643-.208h.111l.015.11c.478,3.426.971,6.966,1.477,10.594l.018.128-.129.019q-3.089.439-6.264.833c-4.644.58-9.189,1.071-13.592,1.4-2.2.144-4.37.27-6.5.243l-1.59-.073c-.264-.016-.526-.068-.788-.1l-.392-.055-.2-.028-.193-.062a8.63,8.63,0,0,1-2.659-1.607,41.218,41.218,0,0,1-4.239-4.157c-1.292-1.425-2.5-2.852-3.636-4.25-2.28-2.8-4.307-5.479-6.125-7.949s-3.419-4.738-4.8-6.747c-.343-.5-.675-.989-.984-1.465a4.544,4.544,0,0,1-.648-1.512,6.157,6.157,0,0,1,.059-2.852,8.8,8.8,0,0,1,1.76-3.517,7.134,7.134,0,0,1,.706-.748c.172-.156.264-.231.264-.231" transform="translate(-12.077 -106.883)" fill="#263238"/>
        <path id="Path_4168" data-name="Path 4168" d="M48.578,203.471c.111.257,10.573,7.287,10.573,7.287l2.523-2.422,1.345,1.079" transform="translate(-24.195 -101.344)" fill="#6370ff"/>
        <path id="Path_4169" data-name="Path 4169" d="M63.017,209.416a1.9,1.9,0,0,1-.378-.251l-1.014-.768.1,0-2.494,2.452-.068.067-.08-.054-3.166-2.122c-2.066-1.4-3.924-2.683-5.254-3.635a13.045,13.045,0,0,1-2.087-1.629l7.488,5.048,3.152,2.142-.148.013,2.552-2.391.05-.048.051.043.969.824a1.9,1.9,0,0,1,.327.315" transform="translate(-24.194 -101.344)" fill="#263238"/>
        <path id="Path_4170" data-name="Path 4170" d="M82.749,219.143a4.539,4.539,0,0,1,.128.78c.066.5.149,1.234.241,2.138.186,1.807.4,4.308.558,7.077s.219,5.28.225,7.1c0,.909,0,1.644-.018,2.152a4.559,4.559,0,0,1-.048.789,4.541,4.541,0,0,1-.054-.789c-.017-.554-.039-1.277-.065-2.149-.053-1.814-.146-4.32-.3-7.086s-.343-5.265-.481-7.076c-.064-.87-.117-1.592-.159-2.144a4.562,4.562,0,0,1-.027-.79" transform="translate(-41.211 -109.15)" fill="#263238"/>
        <path id="Path_4171" data-name="Path 4171" d="M17.89,299.9A104.029,104.029,0,0,0,38.7,296.224" transform="translate(-8.911 -147.542)" fill="#6370ff"/>
        <path id="Path_4172" data-name="Path 4172" d="M38.7,296.221a5.082,5.082,0,0,1-.789.271c-.511.16-1.257.372-2.184.619-1.853.494-4.435,1.1-7.316,1.607s-5.516.826-7.425,1c-.955.086-1.729.142-2.264.167a5.1,5.1,0,0,1-.834.015,5.051,5.051,0,0,1,.826-.116l2.253-.249c1.9-.217,4.523-.564,7.4-1.071s5.455-1.081,7.317-1.528l2.2-.538a5.029,5.029,0,0,1,.815-.173" transform="translate(-8.91 -147.539)" fill="#263238"/>
        <path id="Path_4173" data-name="Path 4173" d="M50.033,371.133l-14.293-4.889s-9.77,12.887-12.5,12.24l8.484-28.055,22.584,6.7Z" transform="translate(-11.575 -174.541)" fill="#455a64"/>
        <path id="Path_4174" data-name="Path 4174" d="M53.552,364.206a1.2,1.2,0,0,0-1.068-1.188,1.15,1.15,0,0,0-1.187,1.048,1.262,1.262,0,0,0,1.137,1.252c.587-.026,1.229-.65,1.113-1.227" transform="translate(-25.55 -180.809)" fill="#e0e0e0"/>
        <path id="Path_4175" data-name="Path 4175" d="M31.139,350.035l2.189.647L25,377.611s-.922,1.085-1.758.677Z" transform="translate(-11.575 -174.344)" fill="#e0e0e0"/>
        <path id="Path_4176" data-name="Path 4176" d="M47.308,379.928c-.136-.046.01-.75-.227-1.557-.216-.814-.7-1.341-.611-1.45.065-.118.822.334,1.091,1.316s-.136,1.759-.252,1.691" transform="translate(-23.14 -187.726)" fill="#263238"/>
        <path id="Path_4177" data-name="Path 4177" d="M42.366,385.626c-.142-.009-.2-.673-.634-1.313-.42-.654-1.011-.96-.964-1.095.018-.135.848.013,1.379.819s.351,1.625.219,1.589" transform="translate(-20.304 -190.849)" fill="#263238"/>
        <path id="Path_4178" data-name="Path 4178" d="M35.93,389.2c.009-.133.75-.117,1.394.462s.749,1.31.617,1.333c-.136.043-.413-.494-.949-.962s-1.09-.693-1.063-.833" transform="translate(-17.895 -193.816)" fill="#263238"/>
        <path id="Path_4179" data-name="Path 4179" d="M54.87,381.489c-.107-.095.272-.667.453-1.457.2-.787.12-1.468.259-1.5.123-.049.452.693.225,1.62s-.85,1.44-.938,1.34" transform="translate(-27.32 -188.535)" fill="#263238"/>
        <path id="Path_4180" data-name="Path 4180" d="M58.244,313.955c.55-.152,24.757,25.815,25.307,30.106s-.33,8.033-3.191,10.454-35.43-5.5-35.43-5.5l3.081-13.644-11.774-3.961L46.76,312.153Z" transform="translate(-18.049 -155.476)" fill="#263238"/>
        <g id="Group_3764" data-name="Group 3764" transform="translate(21.753 162.972)" opacity="0.3">
          <g id="Group_3763" data-name="Group 3763">
            <g id="Group_3762" data-name="Group 3762" clip-path="url(#clip-path-16)">
              <path id="Path_4181" data-name="Path 4181" d="M67.508,325.957l.775.833s-13.875,14.555-18.132,14.356l-6.813-2.308,23.048-14.144Z" transform="translate(-43.339 -324.694)"/>
            </g>
          </g>
        </g>
        <path id="Path_4182" data-name="Path 4182" d="M59.535,359.114c-.021.07,5.033,1.617,11.287,3.454s11.341,3.271,11.362,3.2-5.032-1.617-11.288-3.455-11.34-3.27-11.361-3.2" transform="translate(-29.653 -178.864)" fill="#455a64"/>
        <path id="Path_4183" data-name="Path 4183" d="M94.974,364.9,90.717,378.4s12.3,8.863,11.754,11.435l-26.483-7.314,5.77-21.315Z" transform="translate(-37.848 -179.91)" fill="#455a64"/>
        <path id="Path_4184" data-name="Path 4184" d="M88.569,388.665a1.122,1.122,0,0,0-1.089,1.027,1.078,1.078,0,0,0,1.009,1.088,1.183,1.183,0,0,0,1.147-1.094,1.119,1.119,0,0,0-1.175-1.015" transform="translate(-43.571 -193.579)" fill="#e0e0e0"/>
        <path id="Path_4185" data-name="Path 4185" d="M75.644,402.728l.557-2.066,25.424,7.2s1.037.839.675,1.632Z" transform="translate(-37.676 -199.56)" fill="#e0e0e0"/>
        <path id="Path_4186" data-name="Path 4186" d="M103.468,395.134c-.04.128-.7.008-1.454.248-.758.22-1.24.69-1.345.606-.112-.058.294-.778,1.209-1.053s1.651.087,1.59.2" transform="translate(-50.132 -196.656)" fill="#263238"/>
        <path id="Path_4187" data-name="Path 4187" d="M108.918,399.131c-.005.134-.626.2-1.216.624-.6.408-.877.969-1,.928-.127-.014-.008-.8.736-1.311s1.515-.366,1.484-.242" transform="translate(-53.122 -198.736)" fill="#263238"/>
        <path id="Path_4188" data-name="Path 4188" d="M112.411,404.788c-.125-.005-.126-.7.4-1.317s1.21-.731,1.235-.609c.044.127-.454.4-.879.911s-.625,1.037-.757,1.015" transform="translate(-55.955 -200.634)" fill="#263238"/>
        <path id="Path_4189" data-name="Path 4189" d="M104.744,388.188c-.087.1-.631-.239-1.375-.392-.742-.168-1.378-.079-1.415-.209-.049-.114.638-.439,1.513-.248s1.369.764,1.277.848" transform="translate(-50.779 -192.895)" fill="#263238"/>
        <g id="Group_3767" data-name="Group 3767" transform="translate(38.92 166.263)" opacity="0.3">
          <g id="Group_3766" data-name="Group 3766">
            <g id="Group_3765" data-name="Group 3765" clip-path="url(#clip-path-17)">
              <path id="Path_4190" data-name="Path 4190" d="M77.542,361.243l1.8-7.078L78,353.54l8.186-22.288,1.563,1.36-6.434,20.417-2.3,8.522Z" transform="translate(-77.542 -331.252)"/>
            </g>
          </g>
        </g>
        <path id="Path_4191" data-name="Path 4191" d="M14.665,298.323s48.4-16.859,49.277-17.189a9.73,9.73,0,0,1,1.214-.306,11.489,11.489,0,0,1,9.212,1.975,8.451,8.451,0,0,1,3.438,8.454c-1.321,9.242-13.132,40.792-13.132,40.792l-16.343-4.913c-.093-.028-.185-.3-.134-.215.134.215,8.292-26.068,8.087-25.759-.22.33-16.494,13.46-23.257,15.877A15,15,0,0,1,15.9,311.924c-1.585-2.217-2.927-8.458-1.231-13.6" transform="translate(-6.912 -139.75)" fill="#263238"/>
        <path id="Path_4192" data-name="Path 4192" d="M14.628,298.207s-.058.169-.163.513a13.891,13.891,0,0,0-.378,1.547,19.472,19.472,0,0,0-.087,6.1,16.48,16.48,0,0,0,1.146,4.277,7.216,7.216,0,0,0,.594,1.1c.245.347.514.687.795,1.028a14.155,14.155,0,0,0,1.991,1.891,15.111,15.111,0,0,0,5.41,2.712,15.207,15.207,0,0,0,6.779.254l.886-.191c.3-.07.583-.174.878-.26a15.391,15.391,0,0,0,1.741-.665c.573-.257,1.129-.561,1.7-.844l1.688-.956c2.246-1.335,4.5-2.85,6.8-4.469s4.64-3.354,7.019-5.184q1.786-1.37,3.589-2.827l.9-.74c.076-.065.147-.119.227-.194l.118-.111.059-.056c-.09-.021.243.007-.2-.054-.01-.089,0-.018-.009-.027-.043.178-.1.37-.154.556q-.337,1.123-.678,2.262c-1.854,6.062-3.835,12.427-5.944,19.017l-.809,2.477c-.139.413-.277.831-.429,1.233-.012.038-.057.126-.04.106.425.178.136-.259-.057.115a.421.421,0,0,0,.02.065.7.7,0,0,0,.044.091.335.335,0,0,0,.194.175l.158.048.632.19,5.1,1.535L64.6,332.066l.125.038.045-.121,1.7-4.622c2.61-7.188,5.09-14.232,7.306-21.1,1.1-3.433,2.162-6.815,3.042-10.174.233-.836.41-1.683.616-2.518s.331-1.685.478-2.524a8.61,8.61,0,0,0-3.852-8.707,11.268,11.268,0,0,0-4.435-1.81,11.991,11.991,0,0,0-4.653.1l-1.118.284-1.066.372-2.105.736L45.2,287.44,22.808,295.3l-6.076,2.145-1.575.563c-.353.128-.53.2-.53.2s.19-.057.55-.178l1.594-.543,6.108-2.1L45.3,287.61l15.469-5.376,2.1-.731,1.064-.37,1.087-.273a11.752,11.752,0,0,1,4.558-.087,11.015,11.015,0,0,1,4.336,1.775,8.357,8.357,0,0,1,3.736,8.467c-.148.83-.281,1.669-.477,2.5s-.383,1.673-.616,2.508c-.879,3.35-1.941,6.729-3.044,10.158-2.218,6.857-4.7,13.9-7.308,21.084l-1.7,4.619.17-.084-10.438-3.137-5.1-1.533-.632-.19-.158-.047c-.017-.014-.052.111-.011.017.024-.029,0-.01.006-.021a.266.266,0,0,1-.03-.044.42.42,0,0,1-.027-.057c-.033,0,.058-.033-.071,0,.01-.02-.426.133.053.106a.8.8,0,0,0,.095-.193c.158-.418.294-.831.433-1.246l.808-2.481c2.106-6.594,4.081-12.96,5.928-19.026l.676-2.265c.054-.191.109-.372.158-.573,0-.032.013.015,0-.1-.431-.056-.15-.015-.245-.017l-.049.043-.1.087c-.062.058-.145.124-.216.185l-.893.738q-1.8,1.456-3.58,2.828-3.56,2.748-7,5.19c-2.3,1.62-4.545,3.138-6.781,4.473l-1.678.955c-.57.282-1.123.587-1.689.842A15.207,15.207,0,0,1,32.42,317c-.291.086-.575.189-.867.259l-.874.19a15.033,15.033,0,0,1-6.7-.232,14.978,14.978,0,0,1-5.362-2.665,14.059,14.059,0,0,1-1.978-1.864c-.278-.336-.547-.673-.79-1.012a7.126,7.126,0,0,1-.587-1.077,16.467,16.467,0,0,1-1.16-4.24,19.768,19.768,0,0,1,.037-6.079c.131-.685.243-1.205.348-1.544s.139-.526.139-.526" transform="translate(-6.875 -139.635)" fill="#455a64"/>
        <path id="Path_4193" data-name="Path 4193" d="M105.829,307.166a6.682,6.682,0,0,0-1.347.753,20.543,20.543,0,0,0-2.922,2.314,18.14,18.14,0,0,0-2.428,2.83,10.9,10.9,0,0,0-.6.96,1.286,1.286,0,0,0-.174.378c.037.022.351-.475.922-1.229a23.222,23.222,0,0,1,2.459-2.748,27.513,27.513,0,0,1,2.845-2.352,13.456,13.456,0,0,0,1.242-.907" transform="translate(-48.99 -152.991)" fill="#455a64"/>
        <path id="Path_4194" data-name="Path 4194" d="M100.109,303.54a5.669,5.669,0,0,0-.575,1.236,22.262,22.262,0,0,0-1.424,6.4,5.667,5.667,0,0,0,0,1.363A9.081,9.081,0,0,0,98.3,311.2c.1-.83.271-1.972.547-3.215s.607-2.349.867-3.144a9.021,9.021,0,0,0,.4-1.3" transform="translate(-48.849 -151.186)" fill="#455a64"/>
        <path id="Path_4195" data-name="Path 4195" d="M138.71,240.617,144.9,228.1a2.506,2.506,0,0,1,2.247-1.389h15.56a.758.758,0,0,1,.674,1.116l-10.532,19.5a1.7,1.7,0,0,1-1.5.888H135.218Z" transform="translate(-67.349 -112.921)" fill="#455a64"/>
        <path id="Path_4196" data-name="Path 4196" d="M168.369,228.781a1.286,1.286,0,0,1-.311.025l-.891.015H163.89l-10.8-.092a3.11,3.11,0,0,0-1.437.345,2.676,2.676,0,0,0-.955,1.048c-.452.855-.833,1.747-1.227,2.56l-2.064,4.364-1.415,2.931-.4.791a1.269,1.269,0,0,1-.157.268,1.205,1.205,0,0,1,.1-.292l.348-.814,1.33-2.97,2.008-4.39c.391-.825.753-1.693,1.222-2.588a2.95,2.95,0,0,1,1.058-1.157,3.379,3.379,0,0,1,1.571-.385c4.238.028,8.048.119,10.818.177l3.276.091.89.039a1.281,1.281,0,0,1,.31.034" transform="translate(-72.437 -113.78)" fill="#263238"/>
        <path id="Path_4197" data-name="Path 4197" d="M171.01,234.526a.506.506,0,0,1,.233.774.744.744,0,0,1-.824.31.576.576,0,0,1-.429-.41.71.71,0,0,1,.475-.712,1.127,1.127,0,0,1,.544.038" transform="translate(-84.666 -116.784)" fill="#fff"/>
        <path id="Path_4198" data-name="Path 4198" d="M123.228,254.321l1.073-1.095s1.576-2.273,2.22-2.983a48.521,48.521,0,0,1,4.512-3.2,16.715,16.715,0,0,1,2.15-2.5c.287,0,1.193.16.949,1.325a17.75,17.75,0,0,1-1.022,3.36l8.26.179a1.758,1.758,0,0,1,1.346.639c.216.273.306.574-.081.765a40.228,40.228,0,0,1-4.369,1.278l1.568-.4a2.272,2.272,0,0,1-.656,2.192,5.359,5.359,0,0,0-1.055.836,4.626,4.626,0,0,1-.478,1.975c-.43.568-5.083,2.942-5.083,2.942a19.49,19.49,0,0,1-4.478.8,7.735,7.735,0,0,0-3.22.82c-.17.046-1.636-6.934-1.636-6.934" transform="translate(-61.377 -121.801)" fill="#ffc09d"/>
        <path id="Path_4199" data-name="Path 4199" d="M139.877,253.848a17.108,17.108,0,0,1-2.32.258,9.127,9.127,0,0,1-2.338.114,10,10,0,0,1,2.31-.4,6.657,6.657,0,0,1,2.349.031" transform="translate(-67.349 -126.385)" fill="#ff9b6c"/>
        <path id="Path_4200" data-name="Path 4200" d="M142.3,260.127a12.212,12.212,0,0,1,3.374-.711c.944-.119,1.8-.2,2.417-.271a4.508,4.508,0,0,1,1.007-.076,2.919,2.919,0,0,1-.976.279c-.614.12-1.469.237-2.411.356-1.887.215-3.392.49-3.411.424" transform="translate(-70.877 -129.028)" fill="#ff9b6c"/>
        <path id="Path_4201" data-name="Path 4201" d="M142.3,265.628c0-.086,1.2-.122,2.658-.373s2.6-.607,2.632-.526a9.977,9.977,0,0,1-5.29.9" transform="translate(-70.878 -131.849)" fill="#ff9b6c"/>
        <path id="Path_4202" data-name="Path 4202" d="M142.986,271.04c-.08.013-.2-.309-.268-.719s-.059-.753.021-.766.2.309.268.719.059.753-.021.766" transform="translate(-71.061 -134.258)" fill="#ff9b6c"/>
        <path id="Path_4203" data-name="Path 4203" d="M141.279,264.236c-.083-.007-.126-.273-.268-.554s-.319-.483-.273-.552.36.063.536.425.082.694.005.68" transform="translate(-70.094 -131.05)" fill="#ff9b6c"/>
        <path id="Path_4204" data-name="Path 4204" d="M139.535,257.387c-.082.009-.166-.163-.266-.357s-.185-.365-.129-.425.266.048.39.3.084.481.005.487" transform="translate(-69.294 -127.8)" fill="#ff9b6c"/>
        <path id="Path_4205" data-name="Path 4205" d="M144.224,201.125a8,8,0,0,1,1.4-3.844c3.193-3.925,2.13-7.425,2.13-7.425,1.105-1.222,2.942.238,3.3,3.035a50.237,50.237,0,0,1-.305,12.585c-.079.316-3.386,1.719-3.386,1.719l-4.412-5.155Z" transform="translate(-71.202 -94.346)" fill="#ffc09d"/>
        <path id="Path_4206" data-name="Path 4206" d="M233.737,183.137H159.323a4.342,4.342,0,0,1-4.342-4.342V146.937a4.342,4.342,0,0,1,4.342-4.342h74.414a4.342,4.342,0,0,1,4.342,4.342V178.8a4.342,4.342,0,0,1-4.342,4.342" transform="translate(-77.192 -71.023)" fill="#fff"/>
        <path id="Path_4207" data-name="Path 4207" d="M233.607,183.008c0-.013.211,0,.615-.062a4.243,4.243,0,0,0,1.68-.629,4.3,4.3,0,0,0,1.775-2.262,5.034,5.034,0,0,0,.227-1.847q0-1.01-.005-2.147c-.01-6.073-.024-14.851-.042-25.7q0-1.017,0-2.058,0-.521,0-1.047a6.909,6.909,0,0,0-.047-1.043,4.24,4.24,0,0,0-2.439-3.262,4.62,4.62,0,0,0-2.144-.383l-2.287,0-4.7,0-20.368.012-46.669.01a4.252,4.252,0,0,0-2.754,1.025,4.164,4.164,0,0,0-1.41,2.556,10.762,10.762,0,0,0-.053,1.508v4.56q0,6.048,0,11.908t0,11.493q0,1.408,0,2.8a4.345,4.345,0,0,0,.708,2.558,4.241,4.241,0,0,0,2.057,1.618,7.114,7.114,0,0,0,2.633.264l38.116.028,25.7.042,6.986.024,1.817.013c.409,0,.619.014.619.014s-.21.009-.619.014l-1.817.013-6.986.024-25.7.042-38.116.028c-.45,0-.894.009-1.354-.008a4.221,4.221,0,0,1-1.363-.268,4.486,4.486,0,0,1-2.177-1.71,4.591,4.591,0,0,1-.751-2.695q0-1.393,0-2.8,0-5.632,0-11.493t0-11.908v-4.56a11.026,11.026,0,0,1,.055-1.547,4.427,4.427,0,0,1,1.5-2.715,4.509,4.509,0,0,1,2.925-1.089l46.669.01,20.368.012,4.7,0,2.287,0a4.821,4.821,0,0,1,2.228.406A4.437,4.437,0,0,1,238,146.187a7.211,7.211,0,0,1,.047,1.07q0,.526,0,1.047,0,1.041,0,2.058c-.018,10.847-.032,19.625-.042,25.7q0,1.138-.006,2.147a5.113,5.113,0,0,1-.243,1.871,4.351,4.351,0,0,1-1.82,2.282,4.2,4.2,0,0,1-1.7.611,3.16,3.16,0,0,1-.462.035c-.1,0-.156,0-.156,0" transform="translate(-77.062 -70.894)" fill="#263238"/>
        <path id="Path_4208" data-name="Path 4208" d="M195.161,174.942v5.348l12.6,5.4.106-5.119-7.039-3.141,7.039-3v-4.96Z" transform="translate(-97.205 -84.408)" fill="#ebebeb"/>
        <path id="Path_4209" data-name="Path 4209" d="M267.642,181.076v-5.347l-12.708-5.4-.107,5.119,7.1,3.141-7.1,3v4.96Z" transform="translate(-126.923 -84.835)" fill="#ebebeb"/>
        <path id="Path_4210" data-name="Path 4210" d="M232.08,160.673c0,.133-7.4,25.1-7.191,25.054s5.511,0,5.511,0l7.3-25.051Z" transform="translate(-112.01 -80.027)" fill="#ebebeb"/>
        <path id="Path_4211" data-name="Path 4211" d="M168.723,151.677a1.754,1.754,0,1,1-1.751-1.644,1.7,1.7,0,0,1,1.751,1.644" transform="translate(-82.293 -74.728)" fill="#e0e0e0"/>
        <path id="Path_4212" data-name="Path 4212" d="M178.305,151.677a1.754,1.754,0,1,1-1.751-1.644,1.7,1.7,0,0,1,1.751,1.644" transform="translate(-87.066 -74.728)" fill="#e0e0e0"/>
        <path id="Path_4213" data-name="Path 4213" d="M187.887,151.677a1.754,1.754,0,1,1-1.751-1.644,1.7,1.7,0,0,1,1.751,1.644" transform="translate(-91.838 -74.728)" fill="#e0e0e0"/>
      </g>
    </g>
  </g>
</svg>
