<?xml version="1.0" encoding="utf-8"?>
<!-- Generator: Adobe Illustrator 24.1.2, SVG Export Plug-In . SVG Version: 6.00 Build 0)  -->
<svg version="1.1" id="Layer_1" xmlns="http://www.w3.org/2000/svg" xmlns:xlink="http://www.w3.org/1999/xlink" x="0px" y="0px"
	 viewBox="0 0 1080 1080" style="enable-background:new 0 0 1080 1080;" xml:space="preserve">
<style type="text/css">
	.st0{fill:#07C4C4;}
	.st1{fill:#0076C2;}
	.st2{fill:#009DED;}
	.st3{fill:#FF4011;}
	.st4{fill:#FCB903;}
	.st5{fill:#FAFAFA;}
	.st6{fill:#FFCE00;}
	.st7{fill:#FFAA00;}
	.st8{fill:#0599D3;}
	.st9{fill:#FFFFFF;}
	.st10{fill:#0BB2AD;}
</style>
<g id="Line">
	<path class="st2" d="M168.6,59.4h218.5c60.3,0,109.2,48.9,109.2,109.2V256c0,60.3-48.9,109.2-109.2,109.2H168.6
		c-60.3,0-109.2-48.9-109.2-109.2v-87.4C59.4,108.3,108.3,59.4,168.6,59.4z"/>
	<path class="st0" d="M168.6,408.9h218.5c60.3,0,109.2,48.9,109.2,109.2v393.2c0,60.3-48.9,109.2-109.2,109.2H168.6
		c-60.3,0-109.2-48.9-109.2-109.2V518.2C59.4,457.8,108.3,408.9,168.6,408.9z"/>
	<g>
		<path class="st4" d="M692.9,714.8h218.5c60.3,0,109.2,48.9,109.2,109.2v87.4c0,60.3-48.9,109.2-109.2,109.2H692.9
			c-60.3,0-109.2-48.9-109.2-109.2V824C583.7,763.7,632.6,714.8,692.9,714.8z"/>
		<path class="st0" d="M692.9,59.4h218.5c60.3,0,109.2,48.9,109.2,109.2v393.2c0,60.3-48.9,109.2-109.2,109.2H692.9
			c-60.3,0-109.2-48.9-109.2-109.2V168.6C583.7,108.3,632.6,59.4,692.9,59.4z"/>
	</g>
</g>
</svg>
