<?xml version="1.0" encoding="utf-8"?>
<!-- Generator: Adobe Illustrator 24.1.2, SVG Export Plug-In . SVG Version: 6.00 Build 0)  -->
<svg version="1.1" id="Layer_1" xmlns="http://www.w3.org/2000/svg" xmlns:xlink="http://www.w3.org/1999/xlink" x="0px" y="0px"
	 viewBox="0 0 1080 1080" style="enable-background:new 0 0 1080 1080;" xml:space="preserve">
<style type="text/css">
	.st0{fill:#07C4C4;}
	.st1{fill:#0076C2;}
	.st2{fill:#009DED;}
	.st3{fill:#FF4011;}
	.st4{fill:#FCB903;}
	.st5{fill:#FAFAFA;}
	.st6{fill:#FFCE00;}
	.st7{fill:#FFAA00;}
	.st8{fill:#0599D3;}
	.st9{fill:#FFFFFF;}
	.st10{fill:#0BB2AD;}
	.st11{fill:#FDB62F;}
	.st12{fill:#FD7B2F;}
</style>
<g>
	<g>
		<path class="st6" d="M454.1,684.4l-13.2,78.2c-1.8,10.7,2.6,21.5,11.3,27.8c8.8,6.4,20.4,7.2,30,2.2l70.3-36.7l70.3,36.7
			c4.2,2.2,8.7,3.2,13.2,3.2c5.9,0,11.8-1.8,16.8-5.4c8.8-6.4,13.2-17.2,11.4-27.8l-13.2-78.2l56.6-55.5c7.7-7.6,10.5-18.9,7.2-29.2
			c-3.3-10.3-12.3-17.8-23-19.4l-78.4-11.6l-35.3-71c-4.8-9.7-14.7-15.8-25.5-15.8c-10.8,0-20.7,6.1-25.6,15.8l-35.3,71l-78.4,11.6
			c-10.7,1.6-19.6,9.1-23,19.4c-3.3,10.3-0.6,21.6,7.2,29.2L454.1,684.4z"/>
		<path class="st0" d="M889.7,223.2h-89.8v-49.8c0-22.9-18.5-41.4-41.4-41.4h-6.6c-22.9,0-41.4,18.5-41.4,41.4v49.8H393.6v-49.8
			c0-22.9-18.5-41.4-41.4-41.4h-6.6c-22.9,0-41.4,18.5-41.4,41.4v49.8h-88.8c-47,0-85.2,38.2-85.2,85.2v596.5
			c0,47,38.2,85.2,85.2,85.2h674.3c47,0,85.2-38.2,85.2-85.2V308.4C974.9,261.4,936.7,223.2,889.7,223.2z M878.6,893.7h-652V429.4
			h652V893.7z"/>
	</g>
</g>
</svg>
