<svg xmlns="http://www.w3.org/2000/svg" width="78.845" height="103.656" viewBox="0 0 78.845 103.656">
  <g id="icon_dashboard_reseller" data-name="icon dashboard_reseller" transform="translate(-82.631 -132.9)">
    <path id="Path_7133" data-name="Path 7133" d="M396.969,183.6c11.523,0,20.869-11.345,20.869-25.351S414.769,132.9,396.969,132.9,376.1,144.245,376.1,158.25,385.446,183.6,396.969,183.6Z" transform="translate(-274.892)" fill="#07c4c4"/>
    <path id="Path_7134" data-name="Path 7134" d="M309.015,582.04c-.382-24.383-3.565-31.335-27.948-35.74,0,0-3.438,4.367-11.434,4.367S258.2,546.3,258.2,546.3c-24.1,4.354-27.49,11.192-27.935,34.938-.038,1.935-.051,2.037-.064,1.821v2.559s5.806,11.7,39.42,11.7,39.42-11.7,39.42-11.7v-1.9C309.053,583.874,309.04,583.606,309.015,582.04Z" transform="translate(-147.569 -360.764)" fill="#07c4c4"/>
  </g>
</svg>
