<?xml version="1.0" encoding="utf-8"?>
<!-- Generator: Adobe Illustrator 24.1.2, SVG Export Plug-In . SVG Version: 6.00 Build 0)  -->
<svg version="1.1" id="Layer_1" xmlns="http://www.w3.org/2000/svg" xmlns:xlink="http://www.w3.org/1999/xlink" x="0px" y="0px"
	 viewBox="0 0 1080 1080" style="enable-background:new 0 0 1080 1080;" xml:space="preserve">
<style type="text/css">
	.st0{fill:#07C4C4;}
	.st1{fill:#0076C2;}
	.st2{fill:#009DED;}
	.st3{fill:#FF4011;}
	.st4{fill:#FCB903;}
	.st5{fill:#FAFAFA;}
	.st6{fill:#FFCE00;}
	.st7{fill:#FFAA00;}
	.st8{fill:#0599D3;}
	.st9{fill:#FFFFFF;}
	.st10{fill:#0BB2AD;}
</style>
<g>
	<g>
		<g>
			<path class="st4" d="M780.1,236.8c0-21.6-8.4-41.9-23.7-57.2l-76.3-76.3c-15.1-15.1-36.5-23.7-57.7-23.7h-4.6v161.9h162.4
				L780.1,236.8L780.1,236.8z"/>
		</g>
	</g>
	<g>
		<g>
			<path class="st0" d="M572.3,636.3c5.2-15.7,14.2-30.3,25.9-42.1l182.7-181.9V295.4H591.3c-14.9,0-26.1-12.1-26.1-27V79.5H160.5
				c-44.6,0-80.9,36.3-80.9,80.9v759c0,44.6,36.3,80.9,80.9,80.9h538.7c44.6,0,81.7-36.3,81.7-80.9V718.2l-29.6,28.9
				c-12,11.9-26.1,20.6-41.9,25.9l-85.8,28.6l-13.1,0.7c-21.6,0-42.1-10.5-54.7-28.1c-12.6-17.5-16-40.2-9.2-60.8L572.3,636.3z
				 M214.4,565.2h268.9c14.9,0,27,12.1,27,27c0,14.9-12.1,27-27,27H214.4c-14.9,0-27-12.1-27-27S199.5,565.2,214.4,565.2z
				 M187.5,484.2c0-14.9,12.1-27,27-27h268.9c14.9,0,27,12.1,27,27s-12.1,27-27,27H214.4C199.5,511.2,187.5,499.2,187.5,484.2z
				 M187.5,700.1c0-14.9,12.1-27,27-27h268.9c14.9,0,27,12.1,27,27c0,14.9-12.1,27-27,27H214.4C199.5,727.1,187.5,715,187.5,700.1z
				 M591.3,835c14.9,0,27,12.1,27,27c0,14.9-12.1,27-27,27H429.4c-14.9,0-27-12.1-27-27c0-14.9,12.1-27,27-27H591.3z M214.4,403.3
				c-14.9,0-27-12.1-27-27s12.1-27,27-27h376.8c14.9,0,27,12.1,27,27s-12.1,27-27,27H214.4z"/>
		</g>
	</g>
	<g>
		<g>
			<path class="st1" d="M621.1,660.2l-23.5,70.4c-3.5,10.5,6.5,20.6,17.1,17.1l70.4-23.5L621.1,660.2z"/>
		</g>
	</g>
	<g>
		<g>
			<path class="st2" d="M830.7,438L653,615.7l76.6,76.6c40.2-40.2,118.3-118.3,177.7-177.7L830.7,438z"/>
		</g>
	</g>
	<g>
		<g>
			<path class="st3" d="M984.6,360.6c-9.5-9.5-23.4-15-38.3-15s-28.8,5.5-38.3,15l-39.2,39.2l76.6,76.6
				c21.5-21.5,36.3-36.3,39.2-39.2C1005.7,416.2,1005.7,381.8,984.6,360.6z"/>
		</g>
	</g>
</g>
</svg>
