<?xml version="1.0" encoding="utf-8"?>
<!-- Generator: Adobe Illustrator 24.1.2, SVG Export Plug-In . SVG Version: 6.00 Build 0)  -->
<svg version="1.1" id="Layer_1" xmlns="http://www.w3.org/2000/svg" xmlns:xlink="http://www.w3.org/1999/xlink" x="0px" y="0px"
	 viewBox="0 0 1080 1080" style="enable-background:new 0 0 1080 1080;" xml:space="preserve">
<style type="text/css">
	.st0{fill:#07C4C4;}
	.st1{fill:#0076C2;}
	.st2{fill:#009DED;}
	.st3{fill:#FF4011;}
	.st4{fill:#FCB903;}
	.st5{fill:#FAFAFA;}
	.st6{fill:#FFCE00;}
	.st7{fill:#FFAA00;}
	.st8{fill:#0599D3;}
	.st9{fill:#FFFFFF;}
	.st10{fill:#0BB2AD;}
</style>
<g>
	<g>
		<g>
			<path class="st6" d="M368.7,855.9c-47,0-84.7,38.1-84.7,85.1s37.7,85.1,84.7,85.1s85.1-38.1,85.1-85.1S415.7,855.9,368.7,855.9z"
				/>
			<path class="st0" d="M416.6,689h317.1c31.9,0,59.8-17.7,74.5-43.8l152.2-276.2c3.4-6,5.3-13,5.3-20.4c0-23.6-19.2-42.6-42.6-42.6
				H293.8l-40.4-85.1h-139v85.1h85.1l153,322.8L295.1,733c-6.6,12.3-10.4,26.2-10.4,41.1c0,47,38.1,85.1,85.1,85.1h510.7v-85.1
				H387.8c-6,0-10.6-4.7-10.6-10.6c0-1.9,0.4-3.6,1.3-5.1L416.6,689z"/>
			<path class="st6" d="M794.3,855.9c-47,0-84.7,38.1-84.7,85.1s37.7,85.1,84.7,85.1c47,0,85.1-38.1,85.1-85.1
				S841.4,855.9,794.3,855.9z"/>
		</g>
	</g>
</g>
</svg>
