<?xml version="1.0" encoding="utf-8"?>
<!-- Generator: Adobe Illustrator 24.1.2, SVG Export Plug-In . SVG Version: 6.00 Build 0)  -->
<svg version="1.1" id="Layer_1" xmlns="http://www.w3.org/2000/svg" xmlns:xlink="http://www.w3.org/1999/xlink" x="0px" y="0px"
	 viewBox="0 0 1080 1080" style="enable-background:new 0 0 1080 1080;" xml:space="preserve">
<style type="text/css">
	.st0{fill:#07C4C4;}
	.st1{fill:#0076C2;}
	.st2{fill:#009DED;}
	.st3{fill:#FF4011;}
	.st4{fill:#FCB903;}
	.st5{fill:#FAFAFA;}
	.st6{fill:#FFCE00;}
	.st7{fill:#FFAA00;}
	.st8{fill:#0599D3;}
	.st9{fill:#FFFFFF;}
	.st10{fill:#0BB2AD;}
	.st11{fill:#FDB62F;}
	.st12{fill:#FD7B2F;}
</style>
<path class="st6" d="M290.9,97.1H124.8c-15.2,0-27.7,12.5-27.7,27.7v166.1c0,15.2,12.5,27.7,27.7,27.7h166.1
	c15.2,0,27.7-12.5,27.7-27.7V124.8C318.5,109.5,306.1,97.1,290.9,97.1z"/>
<path class="st6" d="M290.9,429.3H124.8c-15.2,0-27.7,12.5-27.7,27.7V623c0,15.2,12.5,27.7,27.7,27.7h166.1
	c15.2,0,27.7-12.5,27.7-27.7V457C318.5,441.7,306.1,429.3,290.9,429.3z"/>
<path class="st7" d="M290.9,761.5H124.8c-15.2,0-27.7,12.5-27.7,27.7v166.1c0,15.2,12.5,27.7,27.7,27.7h166.1
	c15.2,0,27.7-12.5,27.7-27.7V789.1C318.5,773.9,306.1,761.5,290.9,761.5z"/>
<path class="st2" d="M955.2,97.1H457c-15.2,0-27.7,12.5-27.7,27.7v166.1c0,15.2,12.5,27.7,27.7,27.7h498.3
	c15.2,0,27.7-12.5,27.7-27.7V124.8C982.9,109.5,970.5,97.1,955.2,97.1z"/>
<path class="st0" d="M955.2,429.3H457c-15.2,0-27.7,12.5-27.7,27.7V623c0,15.2,12.5,27.7,27.7,27.7h498.3
	c15.2,0,27.7-12.5,27.7-27.7V457C982.9,441.7,970.5,429.3,955.2,429.3z"/>
<path class="st0" d="M955.2,761.5H457c-15.2,0-27.7,12.5-27.7,27.7v166.1c0,15.2,12.5,27.7,27.7,27.7h498.3
	c15.2,0,27.7-12.5,27.7-27.7V789.1C982.9,773.9,970.5,761.5,955.2,761.5z"/>
</svg>
