<?xml version="1.0" encoding="utf-8"?>
<!-- Generator: Adobe Illustrator 24.1.2, SVG Export Plug-In . SVG Version: 6.00 Build 0)  -->
<svg version="1.1" id="Layer_1" xmlns="http://www.w3.org/2000/svg" xmlns:xlink="http://www.w3.org/1999/xlink" x="0px" y="0px"
	 viewBox="0 0 1080 1080" style="enable-background:new 0 0 1080 1080;" xml:space="preserve">
<style type="text/css">
	.st0{fill:#07C4C4;}
	.st1{fill:#0076C2;}
	.st2{fill:#009DED;}
	.st3{fill:#FF4011;}
	.st4{fill:#FCB903;}
	.st5{fill:#FAFAFA;}
	.st6{fill:#FFCE00;}
	.st7{fill:#FFAA00;}
	.st8{fill:#0599D3;}
	.st9{fill:#FFFFFF;}
	.st10{fill:#0BB2AD;}
</style>
<g>
	<path class="st0" d="M624.5,681c0,0.5,0,1,0,1.6c0.8,51.8,45.6,94.1,97.3,94.1c47.7,0,77.2,38.6,77.2,77.9
		c0,23.9-10.9,48-35.2,63.9c-70.3,46-154.2,72.9-244.3,73.5c-3.1,0-6.2,0-9.3,0C259.4,988.4,60.8,783.4,64.8,532.6
		C68.8,286.4,269.6,88,516.7,88c1,0,1.9,0,2.8,0c147.2,0.9,277,72,358.7,180.7c97.9,130.4,5,316.6-158.1,316.6
		C667.3,585.4,624.5,628.2,624.5,681L624.5,681z"/>
	<path class="st3" d="M333.4,530.2c0,52.1-42.3,94.4-94.4,94.4c-52.1,0-94.4-42.3-94.4-94.4c0-52.1,42.2-94.4,94.4-94.4
		C291.1,435.8,333.4,478,333.4,530.2z"/>
	<path class="st6" d="M470.9,787.7c0,48.5-39.3,87.8-87.8,87.8c-48.5,0-87.8-39.3-87.8-87.8c0-48.5,39.3-87.8,87.8-87.8
		C431.6,699.8,470.9,739.1,470.9,787.7z"/>
	<path class="st1" d="M996.7,822.1c-24.8,24.8-65,24.8-89.7,0L526,418.3l66.9-66.9l403.8,381C1021.4,757.1,1021.4,797.3,996.7,822.1
		z"/>
	<path class="st2" d="M643.9,469.4c-33.6,33.6-82.5,42.7-124.4,27.2c-15.5-5.7-30-14.8-42.4-27.2c-35.5-35.5-55.7-154.6-63.1-207.5
		c-1.8-13,9.3-24.2,22.4-22.4c20.6,2.9,51.3,7.7,83.1,14.6c49.9,10.8,102.7,26.8,124.4,48.5C690,348.7,690,423.3,643.9,469.4
		L643.9,469.4z"/>
</g>
</svg>
