<?xml version="1.0" encoding="utf-8"?>
<!-- Generator: Adobe Illustrator 24.1.2, SVG Export Plug-In . SVG Version: 6.00 Build 0)  -->
<svg version="1.1" id="Layer_1" xmlns="http://www.w3.org/2000/svg" xmlns:xlink="http://www.w3.org/1999/xlink" x="0px" y="0px"
	 viewBox="0 0 1080 1080" style="enable-background:new 0 0 1080 1080;" xml:space="preserve">
<style type="text/css">
	.st0{fill:#07C4C4;}
	.st1{fill:#0076C2;}
	.st2{fill:#009DED;}
	.st3{fill:#FF4011;}
	.st4{fill:#FCB903;}
	.st5{fill:#FAFAFA;}
	.st6{fill:#FFCE00;}
	.st7{fill:#FFAA00;}
	.st8{fill:#0599D3;}
	.st9{fill:#FFFFFF;}
	.st10{fill:#0BB2AD;}
	.st11{fill:#FDB62F;}
	.st12{fill:#FD7B2F;}
</style>
<g>
	<g>
		<g>
			<path class="st0" d="M901.8,211.1H178.2c-54.5,0-98.7,44.2-98.7,98.7v460.5c0,54.5,44.2,98.7,98.7,98.7h723.7
				c54.5,0,98.7-44.2,98.7-98.7V309.7C1000.5,255.2,956.3,211.1,901.8,211.1z M934.7,592.2l-207-207c-12.8-12.8-33.7-12.8-46.5,0
				L408.4,658L300.1,549.6c-12.8-12.8-33.7-12.8-46.5,0L145.3,658V309.7c0-18.2,14.7-32.9,32.9-32.9h723.7
				c18.2,0,32.9,14.7,32.9,32.9L934.7,592.2L934.7,592.2z"/>
		</g>
	</g>
	<g>
		<g>
			<circle class="st6" cx="375.5" cy="441.3" r="98.7"/>
		</g>
	</g>
</g>
</svg>
