<?xml version="1.0" encoding="utf-8"?>
<!-- Generator: Adobe Illustrator 24.1.2, SVG Export Plug-In . SVG Version: 6.00 Build 0)  -->
<svg version="1.1" id="Layer_1" xmlns="http://www.w3.org/2000/svg" xmlns:xlink="http://www.w3.org/1999/xlink" x="0px" y="0px"
	 viewBox="0 0 1080 1080" style="enable-background:new 0 0 1080 1080;" xml:space="preserve">
<style type="text/css">
	.st0{fill:#07C4C4;}
	.st1{fill:#0076C2;}
	.st2{fill:#009DED;}
	.st3{fill:#FF4011;}
	.st4{fill:#FCB903;}
	.st5{fill:#FAFAFA;}
	.st6{fill:#FFCE00;}
	.st7{fill:#FFAA00;}
	.st8{fill:#0599D3;}
	.st9{fill:#FFFFFF;}
	.st10{fill:#0BB2AD;}
	.st11{fill:#FDB62F;}
	.st12{fill:#FD7B2F;}
</style>
<path class="st0" d="M899.6,602.8h-20.9V561h-41.8v41.8H669.6V561h-41.8v41.8h-20.9c-23.1,0-41.6,18.7-41.6,41.8l-0.2,292.7
	c0,23.1,18.7,41.8,41.8,41.8h292.7c23.1,0,41.8-18.7,41.8-41.8V644.6C941.4,621.5,922.7,602.8,899.6,602.8z M899.6,937.4H606.9v-230
	h292.7V937.4z"/>
<path class="st0" d="M487.8,174.3v243.8c0,38.5-31.2,69.7-69.7,69.7H174.3c-38.5,0-69.7-31.2-69.7-69.7V174.3
	c0-38.5,31.2-69.7,69.7-69.7h243.8C456.6,104.7,487.8,135.9,487.8,174.3z"/>
<path class="st6" d="M905.7,104.7H661.9c-38.5,0-69.7,31.2-69.7,69.7v243.8c0,38.5,31.2,69.7,69.7,69.7h243.8
	c38.5,0,69.7-31.2,69.7-69.7V174.3C975.3,135.9,944.1,104.7,905.7,104.7z"/>
<path class="st3" d="M418.1,592.2H174.3c-38.5,0-69.7,31.2-69.7,69.7v243.8c0,38.5,31.2,69.7,69.7,69.7h243.8
	c38.5,0,69.7-31.2,69.7-69.7V661.9C487.8,623.4,456.6,592.2,418.1,592.2z"/>
</svg>
