<svg id="icon_dashboard_berbagilink_-_terbaru_setting" data-name="icon dashboard berbagilink - terbaru_setting" xmlns="http://www.w3.org/2000/svg" width="33.13" height="35.107" viewBox="0 0 33.13 35.107">
  <g id="Group_36" data-name="Group 36" transform="translate(0 8.772)">
    <g id="Group_35" data-name="Group 35">
      <path id="Path_20" data-name="Path 20" d="M119.666,319.764l-2.306-1.811a8.706,8.706,0,0,0,.045-.885c0-.3-.019-.6-.048-.9l2.328-1.826a1.349,1.349,0,0,0,.3-1.725l-2.491-4.306a1.35,1.35,0,0,0-1.666-.569l-2.711,1.09a10.058,10.058,0,0,0-1.536-.9l-.413-2.919a1.374,1.374,0,0,0-1.339-1.108h-4.964a1.389,1.389,0,0,0-1.346,1.16l-.405,2.889a10.229,10.229,0,0,0-1.536.892l-2.726-1.1a1.377,1.377,0,0,0-1.651.584l-2.484,4.3a1.364,1.364,0,0,0,.316,1.751l2.306,1.807c-.026.29-.045.588-.045.885s.019.6.048.9L95.015,319.8a1.35,1.35,0,0,0-.3,1.725l2.491,4.306a1.342,1.342,0,0,0,1.666.569l2.711-1.09a10.061,10.061,0,0,0,1.536.9l.413,2.919a1.377,1.377,0,0,0,1.339,1.108h4.972a1.389,1.389,0,0,0,1.346-1.16l.405-2.886a10.245,10.245,0,0,0,1.536-.9l2.726,1.1a1.323,1.323,0,0,0,.48.089,1.348,1.348,0,0,0,1.171-.673l2.48-4.288A1.363,1.363,0,0,0,119.666,319.764Zm-12.316.231a2.927,2.927,0,1,1,2.927-2.927A2.93,2.93,0,0,1,107.35,319.994Z" transform="translate(-94.525 -303.9)" fill="#07c4c4"/>
    </g>
  </g>
  <g id="Group_38" data-name="Group 38" transform="translate(18.843 0)">
    <g id="Group_37" data-name="Group 37">
      <path id="Path_21" data-name="Path 21" d="M615.144,76.475l-1.086-.844c.007-.1.015-.208.015-.316s0-.216-.007-.324l1.108-.87a1.08,1.08,0,0,0,.227-1.331l-1.313-2.261a1.058,1.058,0,0,0-.93-.547,1.421,1.421,0,0,0-.394.074l-1.261.506a4.906,4.906,0,0,0-.55-.32l-.186-1.294A1.051,1.051,0,0,0,609.719,68h-2.633a1.078,1.078,0,0,0-1.052.9l-.193,1.346a5.51,5.51,0,0,0-.547.312l-1.287-.517a1.528,1.528,0,0,0-.364-.063,1.085,1.085,0,0,0-.926.528L601.393,72.8a1.053,1.053,0,0,0,.268,1.346l1.082.848c0,.1-.007.208-.007.316s0,.212.007.312l-1.119.878a1.075,1.075,0,0,0-.227,1.335l1.309,2.261a1.058,1.058,0,0,0,.93.547,1.422,1.422,0,0,0,.394-.074l1.261-.506a4.9,4.9,0,0,0,.55.32l.193,1.354a1.062,1.062,0,0,0,1.049.889h2.633a1.078,1.078,0,0,0,1.052-.9l.193-1.35a5.687,5.687,0,0,0,.539-.309l1.294.517a1.528,1.528,0,0,0,.364.063,1.086,1.086,0,0,0,.926-.528l1.324-2.294A1.063,1.063,0,0,0,615.144,76.475Zm-6.742.3a1.461,1.461,0,1,1,1.461-1.461A1.464,1.464,0,0,1,608.4,76.776Z" transform="translate(-601.257 -68)" fill="#ffce00"/>
    </g>
  </g>
</svg>
