<?xml version="1.0" encoding="utf-8"?>
<!-- Generator: Adobe Illustrator 24.1.2, SVG Export Plug-In . SVG Version: 6.00 Build 0)  -->
<svg version="1.1" id="Layer_1" xmlns="http://www.w3.org/2000/svg" xmlns:xlink="http://www.w3.org/1999/xlink" x="0px" y="0px"
	 viewBox="0 0 1080 1080" style="enable-background:new 0 0 1080 1080;" xml:space="preserve">
<style type="text/css">
	.st0{fill:#07C4C4;}
	.st1{fill:#0076C2;}
	.st2{fill:#009DED;}
	.st3{fill:#FF4011;}
	.st4{fill:#FCB903;}
	.st5{fill:#FAFAFA;}
	.st6{fill:#FFCE00;}
	.st7{fill:#FFAA00;}
	.st8{fill:#0599D3;}
	.st9{fill:#FFFFFF;}
	.st10{fill:#0BB2AD;}
	.st11{fill:#FDB62F;}
	.st12{fill:#FD7B2F;}
</style>
<g>
	<path class="st2" d="M231.1,344.9l56-186.5h-75.3c-10,0-19.2,5.7-23.7,14.7l-85.9,171.9H231.1z"/>
	<path class="st2" d="M974.4,344.9l-85.9-171.9c-4.5-9-13.7-14.7-23.7-14.7h-75.3l56,186.5H974.4z"/>
	<path class="st2" d="M790.1,344.9l-56-186.5h-94.7l18.7,186.5H790.1z"/>
	<path class="st2" d="M418.4,344.9l18.7-186.5h-94.7l-56,186.5H418.4z"/>
	<path class="st2" d="M604.8,344.9l-18.7-186.5h-95.7l-18.7,186.5H604.8z"/>
	<path class="st1" d="M155,472.7c38.2,0,69.3-31.1,69.3-69.3V398H85.7v5.4C85.7,441.6,116.8,472.7,155,472.7z"/>
	<path class="st1" d="M277.3,403.4c0,38.2,31.1,69.3,69.3,69.3c38.2,0,69.3-31.1,69.3-69.3V398H277.3V403.4z"/>
	<path class="st1" d="M469,403.4c0,38.2,31.1,69.3,69.3,69.3s69.3-31.1,69.3-69.3V398H469L469,403.4z"/>
	<path class="st1" d="M660.6,403.4c0,38.2,31.1,69.3,69.3,69.3c38.2,0,69.3-31.1,69.3-69.3V398H660.6V403.4z"/>
	<path class="st1" d="M852.2,398v5.4c0,38.2,31.1,69.3,69.3,69.3c38.2,0,69.3-31.1,69.3-69.3V398H852.2z"/>
	<path class="st4" d="M302.8,637.5h209V824h-209V637.5z"/>
	<path class="st0" d="M641,900.1c-8.3-14.1-11.3-30.8-8.5-47c1.8-10.5,6.1-20.4,12.3-29c-16-22.1-18-51.8-3.7-76l27-46.7l0.2-0.4
		c12.5-20.9,35.5-33.9,59.9-33.9c2.3,0,4.6,0.1,6.9,0.3c11.1-24.6,35.6-41.2,63.5-41.2h54c27.9,0,52.4,16.5,63.5,41
		c2.4-0.2,4.8-0.4,7.2-0.4c2.6,0,5.3,0.2,7.8,0.4v-142h0c-3.1,0.2-6.2,0.4-9.4,0.4c-38.8,0-73.4-18.2-95.8-46.4
		c-22.4,28.2-57,46.4-95.8,46.4c-38.8,0-73.4-18.2-95.8-46.4c-22.4,28.2-57,46.4-95.8,46.4s-73.4-18.2-95.8-46.4
		c-22.4,28.2-57,46.4-95.8,46.4c-38.8,0-73.4-18.2-95.8-46.4c-22.4,28.2-57,46.4-95.8,46.4c-3.2,0-6.3-0.2-9.4-0.4v392
		c0,14.6,11.9,26.5,26.5,26.5h416h54.6h23.5L641,900.1z M564.8,850.6c0,14.6-11.9,26.5-26.5,26.5h-262c-14.6,0-26.5-11.9-26.5-26.5
		V611c0-14.6,11.9-26.5,26.5-26.5h262c14.6,0,26.5,11.9,26.5,26.5V850.6z"/>
	<path class="st3" d="M959.2,853.3l-25-19.6c0.3-3.2,0.5-6.4,0.5-9.6c0-3.3-0.2-6.5-0.5-9.8l25.3-19.8c5.6-4.7,6.9-12.6,3.3-18.7
		l-27.1-46.8c-3.6-6-10.8-8.9-18.1-6.2l-29.4,11.8c-5.3-3.8-10.8-7-16.7-9.7l-4.5-31.7c-1.3-6.8-7.5-12-14.5-12h-54
		c-7,0-13.3,5.3-14.6,12.6l-4.4,31.4c-5.9,2.8-11.5,6-16.7,9.7l-29.6-11.9c-6.6-2.4-14.2,0.2-17.9,6.4l-26.9,46.6
		c-3.7,6.2-2.3,14.1,3.4,19l25,19.6c-0.3,3.2-0.5,6.4-0.5,9.6c0,3.3,0.2,6.5,0.5,9.8l-25.3,19.8c-5.6,4.7-6.9,12.6-3.3,18.7
		l27.1,46.8c3.6,6,10.8,8.9,18.1,6.2l29.4-11.8c5.3,3.8,10.8,7,16.7,9.7l4.5,31.7c1.3,6.8,7.5,12,14.5,12h54c7,0,13.3-5.3,14.6-12.6
		l4.4-31.3c5.9-2.8,11.5-6.1,16.7-9.7l29.6,11.9c1.7,0.6,3.4,1,5.2,1c5.2,0,10-2.7,12.7-7.3l26.9-46.6
		C966.3,866.1,965,858.2,959.2,853.3z M825.5,855.8c-17.5,0-31.8-14.2-31.8-31.8c0-17.5,14.2-31.8,31.8-31.8s31.8,14.2,31.8,31.8
		C857.2,841.5,843,855.8,825.5,855.8z"/>
</g>
</svg>
