<?xml version="1.0" encoding="utf-8"?>
<!-- Generator: Adobe Illustrator 24.1.2, SVG Export Plug-In . SVG Version: 6.00 Build 0)  -->
<svg version="1.1" id="Layer_1" xmlns="http://www.w3.org/2000/svg" xmlns:xlink="http://www.w3.org/1999/xlink" x="0px" y="0px"
	 viewBox="0 0 1080 1080" style="enable-background:new 0 0 1080 1080;" xml:space="preserve">
<style type="text/css">
	.st0{fill:#07C4C4;}
	.st1{fill:#0076C2;}
	.st2{fill:#009DED;}
	.st3{fill:#FF4011;}
	.st4{fill:#FCB903;}
	.st5{fill:#FAFAFA;}
	.st6{fill:#FFCE00;}
	.st7{fill:#FFAA00;}
	.st8{fill:#0599D3;}
	.st9{fill:#FFFFFF;}
	.st10{fill:#0BB2AD;}
</style>
<g>
	<path class="st6" d="M871,199.1c-70.3-70.3-184.1-70.3-254.4,0L478.1,337.7c-23.2,23.2-38.5,51.2-46.4,80.8
		c-8.6,31.5-8.3,64.9,1,96.3c7.9,28.3,23.2,55,45.5,77.3c22.3,22.3,49,37.5,77.3,45.5c31.5,9.2,64.9,9.5,96.3,1
		c29.6-8,57.6-23.2,80.8-46.4L871,453.5C941.3,383.2,941.3,269.4,871,199.1z M668.8,528.5c-5.4,5.4-11.4,10.2-18.1,13.7
		c-34.3,20.4-79.5,15.9-109.1-13.7c-29.6-29.6-34-74.7-13.7-109.1c3.5-6.7,8.3-12.7,13.7-18.1l138.6-138.6c35-35,92.2-35,127.2,0
		s35,92.2,0,127.2L668.8,528.5z"/>
	<path class="st7" d="M871,453.5L732.4,592.1c-23.2,23.2-51.2,38.5-80.8,46.4c-31.5,8.6-64.9,8.3-96.3-1
		c-28.3-7.9-55-23.2-77.3-45.5l63.6-63.6c29.6,29.6,74.7,34,109.1,13.7c6.7-3.5,12.7-8.3,18.1-13.7l138.6-138.6
		c35-35,35-92.2,0-127.2l63.6-63.6C941.3,269.4,941.3,383.2,871,453.5z"/>
	<path class="st0" d="M605.2,719.3L463.4,861.2c-70.3,70.3-184.1,70.3-254.4,0s-70.3-184.1,0-254.4l141.9-141.9
		c23.2-23.2,51.2-38.5,80.8-46.4c-8.6,31.5-8.3,64.9,1,96.3c-6.7,3.5-12.7,8.3-18.1,13.7L272.6,670.4c-35,35-35,92.2,0,127.2
		c35,35,92.2,35,127.2,0l141.9-141.9c5.4-5.4,10.2-11.4,13.7-18.1c20.4-34.3,15.9-79.5-13.7-109.1c-29.6-29.6-34-74.7-13.7-109.1
		c28.3,7.9,55,23.2,77.3,45.5c22.3,22.3,37.5,49,45.5,77.3c9.2,31.5,9.5,64.9,1,96.3C643.7,668.1,628.5,696.1,605.2,719.3z"/>
	<path class="st10" d="M605.2,719.3L463.4,861.2c-70.3,70.3-184.1,70.3-254.4,0l63.6-63.6c35,35,92.2,35,127.2,0l141.9-141.9
		c5.4-5.4,10.2-11.4,13.7-18.1c20.4-34.3,15.9-79.5-13.7-109.1l63.6-63.6c22.3,22.3,37.5,49,45.5,77.3c9.2,31.5,9.5,64.9,1,96.3
		C643.7,668.1,628.5,696.1,605.2,719.3z"/>
</g>
</svg>
