<?xml version="1.0" encoding="utf-8"?>
<!-- Generator: Adobe Illustrator 24.1.2, SVG Export Plug-In . SVG Version: 6.00 Build 0)  -->
<svg version="1.1" id="Layer_1" xmlns="http://www.w3.org/2000/svg" xmlns:xlink="http://www.w3.org/1999/xlink" x="0px" y="0px"
	 viewBox="0 0 1080 1080" style="enable-background:new 0 0 1080 1080;" xml:space="preserve">
<style type="text/css">
	.st0{fill:#07C4C4;}
	.st1{fill:#0076C2;}
	.st2{fill:#009DED;}
	.st3{fill:#FF4011;}
	.st4{fill:#FCB903;}
	.st5{fill:#FAFAFA;}
	.st6{fill:#FFCE00;}
	.st7{fill:#FFAA00;}
	.st8{fill:#0599D3;}
	.st9{fill:#FFFFFF;}
	.st10{fill:#0BB2AD;}
	.st11{fill:#FDB62F;}
	.st12{fill:#FD7B2F;}
</style>
<g>
	<polygon class="st6" points="716.5,519.4 671.7,474.7 465.8,680.6 376.4,591.2 331.6,635.9 465.8,770.1 	"/>
	<path class="st0" d="M667.8,936.8l-0.3-0.5l-27.2-47c-6.3-10.8-10.3-22.6-11.8-34.8H230V390.3h590.7v191.8h50.2
		c12,0,23.5,2.3,34.1,6.6v-325c0-46.6-37.8-84.4-84.4-84.4h-42.2V95h-84.4v84.4H356.5V95h-84.4v84.4H230c-46.6,0-84,37.8-84,84.4
		l-0.4,590.7c0,46.6,37.8,84.4,84.4,84.4H669C668.6,938.2,668.2,937.5,667.8,936.8z"/>
	<path class="st3" d="M977.6,831.3l-25-19.6c0.3-3.2,0.5-6.4,0.5-9.6c0-3.3-0.2-6.5-0.5-9.8l25.3-19.8c5.6-4.7,6.9-12.6,3.3-18.7
		L954.1,707c-3.6-6-10.8-8.9-18.1-6.2l-29.4,11.8c-5.3-3.8-10.8-7-16.7-9.7l-4.5-31.7c-1.3-6.8-7.5-12-14.5-12h-54
		c-7,0-13.3,5.3-14.6,12.6l-4.4,31.4c-5.9,2.8-11.5,6-16.7,9.7l-29.6-11.9c-6.6-2.4-14.2,0.2-17.9,6.4l-26.9,46.6
		c-3.7,6.2-2.3,14.1,3.4,19l25,19.6c-0.3,3.2-0.5,6.4-0.5,9.6c0,3.3,0.2,6.5,0.5,9.8L710,831.7c-5.6,4.7-6.9,12.6-3.3,18.7
		l27.1,46.8c3.6,6,10.8,8.9,18.1,6.2l29.4-11.8c5.3,3.8,10.8,7,16.7,9.7l4.5,31.7c1.3,6.8,7.5,12,14.5,12h54c7,0,13.3-5.3,14.6-12.6
		l4.4-31.3c5.9-2.8,11.5-6.1,16.7-9.7l29.6,11.9c1.7,0.6,3.4,1,5.2,1c5.2,0,10-2.7,12.7-7.3l26.9-46.6
		C984.8,844.1,983.4,836.2,977.6,831.3z M843.9,833.8c-17.5,0-31.8-14.2-31.8-31.8c0-17.5,14.2-31.8,31.8-31.8s31.8,14.2,31.8,31.8
		C875.7,819.6,861.4,833.8,843.9,833.8z"/>
</g>
</svg>
