<?xml version="1.0" encoding="utf-8"?>
<!-- Generator: Adobe Illustrator 24.1.2, SVG Export Plug-In . SVG Version: 6.00 Build 0)  -->
<svg version="1.1" id="Layer_1" xmlns="http://www.w3.org/2000/svg" xmlns:xlink="http://www.w3.org/1999/xlink" x="0px" y="0px"
	 viewBox="0 0 1080 1080" style="enable-background:new 0 0 1080 1080;" xml:space="preserve">
<style type="text/css">
	.st0{fill:#07C4C4;}
	.st1{fill:#0076C2;}
	.st2{fill:#009DED;}
	.st3{fill:#FF4011;}
	.st4{fill:#FCB903;}
	.st5{fill:#FAFAFA;}
	.st6{fill:#FFCE00;}
	.st7{fill:#FFAA00;}
	.st8{fill:#0599D3;}
	.st9{fill:#FFFFFF;}
	.st10{fill:#0BB2AD;}
</style>
<g>
	<g>
		<path class="st6" d="M818.9,1012H141.7C91,1012,50,970.9,50,920.3c0-50.7,41.1-91.7,91.7-91.7h677.2c50.7,0,91.7,41.1,91.7,91.7
			S869.5,1012,818.9,1012L818.9,1012z"/>
	</g>
	<g>
		<path class="st2" d="M885.8,452.3l47.2-47.2l47.2,47.2l47.2-47.2l2.6,2.6V180.8C1030,118.5,979.5,68,917.2,68H595.7v392.2h187.9
			l55-55L885.8,452.3z"/>
	</g>
	<g>
		<path class="st8" d="M783.6,460.2l55-55l29.1,29.1V180.8c0-51.3,34.3-94.6,81.2-108.3c-10.1-2.9-20.7-4.5-31.7-4.5H595.7v392.2
			L783.6,460.2L783.6,460.2z"/>
	</g>
	<g>
		<path class="st7" d="M797.8,952.3H161.9c-16.4,0-29.7-13.3-29.7-29.7s13.3-29.7,29.7-29.7h635.9c16.4,0,29.7,13.3,29.7,29.7
			C827.5,939,814.2,952.3,797.8,952.3L797.8,952.3z"/>
	</g>
	<g>
		<path class="st0" d="M910.6,68H274.7c-62.3,0-112.8,50.5-112.8,112.8v741.7h635.9V180.8C797.8,118.5,848.3,68,910.6,68L910.6,68z"
			/>
	</g>
	<g>
		<path class="st9" d="M252.8,262.1h259v59.6h-259V262.1z"/>
	</g>
	<g>
		<path class="st6" d="M617.8,262.1h91v59.6h-91V262.1z"/>
	</g>
	<g>
		<path class="st9" d="M252.8,424.7h259v59.6h-259V424.7z"/>
	</g>
	<g>
		<path class="st6" d="M617.8,424.7h91v59.6h-91V424.7z"/>
	</g>
	<g>
		<path class="st9" d="M252.8,592.2h259v59.6h-259V592.2z"/>
	</g>
	<g>
		<path class="st6" d="M617.8,592.2h91v59.6h-91V592.2z"/>
	</g>
</g>
</svg>
