<?xml version="1.0" encoding="utf-8"?>
<!-- Generator: Adobe Illustrator 24.1.2, SVG Export Plug-In . SVG Version: 6.00 Build 0)  -->
<svg version="1.1" id="Layer_1" xmlns="http://www.w3.org/2000/svg" xmlns:xlink="http://www.w3.org/1999/xlink" x="0px" y="0px"
	 viewBox="0 0 1080 1080" style="enable-background:new 0 0 1080 1080;" xml:space="preserve">
<style type="text/css">
	.st0{fill:#07C4C4;}
	.st1{fill:#0076C2;}
	.st2{fill:#009DED;}
	.st3{fill:#FF4011;}
	.st4{fill:#FCB903;}
	.st5{fill:#FAFAFA;}
	.st6{fill:#FFCE00;}
	.st7{fill:#FFAA00;}
	.st8{fill:#0599D3;}
	.st9{fill:#FFFFFF;}
	.st10{fill:#0BB2AD;}
	.st11{fill:#FDB62F;}
	.st12{fill:#FD7B2F;}
</style>
<g>
	<path class="st0" d="M57.7,761V319c0-44.4,36-80.4,80.4-80.4h803.8c44.4,0,80.4,36,80.4,80.4V761c0,44.4-36,80.4-80.4,80.4H138.1
		C93.7,841.4,57.7,805.4,57.7,761z"/>
	<path class="st2" d="M941.9,238.6h-85.4L253.6,841.4h688.3c44.4,0,80.4-36,80.4-80.4V319C1022.3,274.6,986.3,238.6,941.9,238.6z"/>
	<path class="st9" d="M138.1,560.1h80.4v40.2h-80.4V560.1z"/>
	<path class="st4" d="M138.1,680.7h80.4v40.2h-80.4V680.7z"/>
	<path class="st3" d="M499.8,680.7h80.4v40.2h-80.4V680.7z"/>
	<path class="st9" d="M258.7,560.1H339v40.2h-80.4V560.1z"/>
	<path class="st9" d="M379.2,560.1h80.4v40.2h-80.4V560.1z"/>
	<path class="st9" d="M499.8,560.1h80.4v40.2h-80.4V560.1z"/>
	<path class="st9" d="M881.6,319h40.2v60.3h-40.2V319z"/>
	<path class="st9" d="M801.2,319h40.2v60.3h-40.2V319z"/>
	<path class="st9" d="M720.9,319H761v60.3h-40.2V319z"/>
	<path class="st9" d="M640.5,319h40.2v60.3h-40.2V319z"/>
	<path class="st11" d="M138.1,447.6v-96.5c0-17.8,14.4-32.2,32.2-32.2h96.5c17.8,0,32.1,14.4,32.1,32.2v96.5
		c0,17.8-14.4,32.2-32.1,32.2h-96.5C152.5,479.7,138.1,465.3,138.1,447.6z"/>
	<path class="st12" d="M138.1,379.2h60.3v40.2h-60.3V379.2z"/>
	<path class="st12" d="M238.6,379.2h60.3v40.2h-60.3V379.2z"/>
</g>
</svg>
