<?xml version="1.0" encoding="utf-8"?>
<!-- Generator: Adobe Illustrator 24.1.2, SVG Export Plug-In . SVG Version: 6.00 Build 0)  -->
<svg version="1.1" id="Layer_1" xmlns="http://www.w3.org/2000/svg" xmlns:xlink="http://www.w3.org/1999/xlink" x="0px" y="0px"
	 viewBox="0 0 1080 1080" style="enable-background:new 0 0 1080 1080;" xml:space="preserve">
<style type="text/css">
	.st0{fill:#07C4C4;}
	.st1{fill:#0076C2;}
	.st2{fill:#009DED;}
	.st3{fill:#FF4011;}
	.st4{fill:#FCB903;}
	.st5{fill:#FAFAFA;}
	.st6{fill:#FFCE00;}
	.st7{fill:#FFAA00;}
	.st8{fill:#0599D3;}
	.st9{fill:#FFFFFF;}
	.st10{fill:#0BB2AD;}
	.st11{fill:#FDB62F;}
	.st12{fill:#FD7B2F;}
</style>
<path class="st0" d="M487.8,174.3v243.8c0,38.5-31.2,69.7-69.7,69.7H174.3c-38.5,0-69.7-31.2-69.7-69.7V174.3
	c0-38.5,31.2-69.7,69.7-69.7h243.8C456.6,104.7,487.8,135.9,487.8,174.3z"/>
<path class="st6" d="M905.7,104.7H661.9c-38.5,0-69.7,31.2-69.7,69.7v243.8c0,38.5,31.2,69.7,69.7,69.7h243.8
	c38.5,0,69.7-31.2,69.7-69.7V174.3C975.3,135.9,944.1,104.7,905.7,104.7z"/>
<path class="st3" d="M418.1,592.2H174.3c-38.5,0-69.7,31.2-69.7,69.7v243.8c0,38.5,31.2,69.7,69.7,69.7h243.8
	c38.5,0,69.7-31.2,69.7-69.7V661.9C487.8,623.4,456.6,592.2,418.1,592.2z"/>
<g>
	<g>
		<g>
			<path class="st0" d="M841.5,867c-25.5,0-46.4,20.5-46.4,46.4c0,25.5,20.5,46.4,46.4,46.4c25.5,0,46.4-20.5,46.4-46.4
				C887.5,887.9,866.9,867,841.5,867z"/>
		</g>
	</g>
	<g>
		<g>
			<path class="st0" d="M923.2,645.4c-0.9,0-2.2-0.4-3.6-0.4H638.3l-4.5-29.9c-2.7-19.7-19.7-34.4-39.8-34.4h-36.2
				c-9.8,0-17.9,8-17.9,17.9c0,9.8,8,17.9,17.9,17.9H594c2.2,0,4,1.8,4.5,4l27.7,188.5c3.6,23.7,24.1,41.5,48.2,41.5h185.8
				c23.2,0,43.3-16.5,48.2-39.3l29-145.2C939.3,656.6,933,647.2,923.2,645.4z"/>
		</g>
	</g>
	<g>
		<g>
			<path class="st0" d="M727.6,911.2c-0.9-24.6-21.4-44.2-46-44.2c-25.9,1.3-45.6,22.8-44.7,48.2c0.9,24.6,21,44.2,45.6,44.2h0.9
				C708.8,958.1,728.9,936.6,727.6,911.2z"/>
		</g>
	</g>
</g>
</svg>
