<?xml version="1.0" encoding="utf-8"?>
<!-- Generator: Adobe Illustrator 24.1.2, SVG Export Plug-In . SVG Version: 6.00 Build 0)  -->
<svg version="1.1" id="Layer_1" xmlns="http://www.w3.org/2000/svg" xmlns:xlink="http://www.w3.org/1999/xlink" x="0px" y="0px"
	 viewBox="0 0 1080 1080" style="enable-background:new 0 0 1080 1080;" xml:space="preserve">
<style type="text/css">
	.st0{fill:#07C4C4;}
	.st1{fill:#0076C2;}
	.st2{fill:#009DED;}
	.st3{fill:#FF4011;}
	.st4{fill:#FCB903;}
	.st5{fill:#FAFAFA;}
	.st6{fill:#FFCE00;}
	.st7{fill:#FFAA00;}
	.st8{fill:#0599D3;}
	.st9{fill:#FFFFFF;}
	.st10{fill:#0BB2AD;}
	.st11{fill:#FDB62F;}
	.st12{fill:#FD7B2F;}
</style>
<g>
	<g>
		<path class="st0" d="M954.5,463.5c14.1,0,25.5-11.4,25.5-25.5V301.8c0-14.1-11.4-25.5-25.5-25.5H393.1v127.6
			c0,14.1-11.4,25.5-25.5,25.5s-25.5-11.4-25.5-25.5V276.3H121c-14.1,0-25.5,11.4-25.5,25.5v136.1c0,14.1,11.4,25.5,25.5,25.5
			c42.2,0,76.5,34.3,76.5,76.5c0,42.2-34.3,76.5-76.5,76.5c-14.1,0-25.5,11.4-25.5,25.5v136.1c0,14.1,11.4,25.5,25.5,25.5h221.1
			V676.1c0-14.1,11.4-25.5,25.5-25.5s25.5,11.4,25.5,25.5v127.6h561.4c14.1,0,25.5-11.4,25.5-25.5V642.1c0-14.1-11.4-25.5-25.5-25.5
			c-42.2,0-76.5-34.3-76.5-76.5C877.9,497.8,912.3,463.5,954.5,463.5z M393.1,574c0,14.1-11.4,25.5-25.5,25.5s-25.5-11.4-25.5-25.5
			v-68c0-14.1,11.4-25.5,25.5-25.5s25.5,11.4,25.5,25.5V574z"/>
	</g>
</g>
</svg>
