<?xml version="1.0" encoding="utf-8"?>
<!-- Generator: Adobe Illustrator 24.1.2, SVG Export Plug-In . SVG Version: 6.00 Build 0)  -->
<svg version="1.1" id="Layer_1" xmlns="http://www.w3.org/2000/svg" xmlns:xlink="http://www.w3.org/1999/xlink" x="0px" y="0px"
	 viewBox="0 0 1080 1080" style="enable-background:new 0 0 1080 1080;" xml:space="preserve">
<style type="text/css">
	.st0{fill:#07C4C4;}
	.st1{fill:#0076C2;}
	.st2{fill:#009DED;}
	.st3{fill:#FF4011;}
	.st4{fill:#FCB903;}
	.st5{fill:#FAFAFA;}
	.st6{fill:#FFCE00;}
	.st7{fill:#FFAA00;}
	.st8{fill:#0599D3;}
	.st9{fill:#FFFFFF;}
	.st10{fill:#0BB2AD;}
</style>
<g>
	<g>
		<g>
			<path class="st0" d="M770.6,730.5l-62-48.7c0.8-7.8,1.2-15.8,1.2-23.8c0-8.1-0.5-16.2-1.3-24.3l62.6-49.1
				c13.8-11.7,17.2-31.3,8.1-46.4l-67-115.8c-9-14.9-26.7-22-44.8-15.3l-72.9,29.3c-13.1-9.3-26.7-17.3-41.3-24.2l-11.1-78.5
				c-3.1-17-18.6-29.8-36-29.8H372.6c-17.5,0-33,13.1-36.2,31.2l-10.9,77.7c-14.7,6.9-28.5,15-41.3,24l-73.3-29.5
				c-16.3-6.1-35.2,0.4-44.4,15.7L99.7,538.5c-9.2,15.3-5.8,34.9,8.5,47.1l62,48.6C169.5,642,169,650,169,658
				c0,8.1,0.5,16.2,1.3,24.3l-62.6,49.1c-13.8,11.7-17.2,31.3-8.1,46.4l67,115.8c9,15,26.7,22.1,44.8,15.3l72.9-29.3
				c13.1,9.3,26.7,17.3,41.3,24.2l11.1,78.5c3.2,17,18.6,29.8,36,29.8h133.7c17.5,0,33-13.1,36.2-31.2l10.9-77.6
				c14.7-7,28.5-15,41.3-24.1l73.3,29.5c4.1,1.6,8.5,2.4,12.9,2.4c12.9,0,24.7-6.6,31.5-18.1l66.7-115.3
				C788.4,762.2,785,742.6,770.6,730.5z M439.4,736.7c-43.4,0-78.7-35.3-78.7-78.7c0-43.4,35.3-78.7,78.7-78.7s78.7,35.3,78.7,78.7
				C518.1,701.4,482.8,736.7,439.4,736.7z"/>
		</g>
	</g>
	<g>
		<g>
			<path class="st3" d="M974.7,295.9l-29.2-22.7c0.2-2.8,0.4-5.6,0.4-8.5c0-3-0.1-5.8-0.2-8.7l29.8-23.4c10.1-9,12.7-23.6,6.1-35.8
				L946.3,136c-4.9-9-14.5-14.7-25-14.7c-2.5,0-8.3,1-10.6,2l-33.9,13.6c-4.9-3.3-9.8-6.1-14.8-8.6l-5-34.8
				C855.8,79.2,843.4,68,828.8,68H758c-13.8,0-26,10.3-28.3,24.3l-5.2,36.2c-5.2,2.6-10.1,5.4-14.7,8.4L675.2,123
				c-2.2-0.8-7.5-1.7-9.8-1.7c-9.9,0-19.1,5-24.9,14.2l-35.6,61.6c-6.8,12.4-3.9,27.3,7.2,36.2l29.1,22.8c-0.1,2.8-0.2,5.6-0.2,8.5
				c0,2.9,0.1,5.7,0.2,8.4l-30.1,23.6c-10.2,9-12.8,23.6-6.1,35.9l35.2,60.8c4.9,9,14.5,14.7,25,14.7c2.5,0,8.3-1,10.6-2l33.9-13.6
				c4.9,3.3,9.8,6.1,14.8,8.6l5.2,36.4c2.3,13.8,14.2,23.9,28.2,23.9h70.8c13.8,0,26-10.3,28.3-24.3l5.2-36.3
				c5.2-2.6,10-5.4,14.5-8.3l34.8,13.9c2.2,0.8,7.5,1.7,9.8,1.7c9.9,0,19.1-5,24.9-14.2l35.6-61.7
				C988.5,320.2,985.9,305.7,974.7,295.9z M793.4,304c-21.7,0-39.3-17.7-39.3-39.3c0-21.7,17.7-39.3,39.3-39.3
				c21.7,0,39.3,17.7,39.3,39.3S815.2,304,793.4,304z"/>
		</g>
	</g>
</g>
</svg>
