<?xml version="1.0" encoding="utf-8"?>
<!-- Generator: Adobe Illustrator 24.1.2, SVG Export Plug-In . SVG Version: 6.00 Build 0)  -->
<svg version="1.1" id="Layer_1" xmlns="http://www.w3.org/2000/svg" xmlns:xlink="http://www.w3.org/1999/xlink" x="0px" y="0px"
	 viewBox="0 0 1080 1080" style="enable-background:new 0 0 1080 1080;" xml:space="preserve">
<style type="text/css">
	.st0{fill:#07C4C4;}
	.st1{fill:#0076C2;}
	.st2{fill:#009DED;}
	.st3{fill:#FF4011;}
	.st4{fill:#FCB903;}
	.st5{fill:#FAFAFA;}
	.st6{fill:#FFCE00;}
	.st7{fill:#FFAA00;}
	.st8{fill:#0599D3;}
	.st9{fill:#FFFFFF;}
	.st10{fill:#0BB2AD;}
</style>
<g>
	<g>
		<g>
			<path class="st2" d="M953.7,1029.5c-10.3,0-20.7-4-28.6-11.8L626.6,719.1c-15.8-15.8-15.8-41.4,0-57.2
				c15.8-15.8,41.4-15.8,57.2,0l298.6,298.6c15.8,15.8,15.8,41.4,0,57.2C974.4,1025.6,964.1,1029.5,953.7,1029.5L953.7,1029.5z"/>
		</g>
	</g>
	<g>
		<g>
			<path class="st0" d="M408,827.4c-211.7,0-384-172.3-384-384s172.3-384,384-384s384,172.3,384,384S619.7,827.4,408,827.4z"/>
		</g>
	</g>
	<g>
		<g>
			<path class="st5" d="M408,645.5c-124.2,0-237.2-76.8-280.9-191.3c-2.7-7-2.7-14.7,0-21.6C170.8,318.1,283.8,241.3,408,241.3
				s237.2,76.8,280.9,191.3c2.7,7,2.7,14.7,0,21.6C645.2,568.7,532.2,645.5,408,645.5L408,645.5z"/>
		</g>
	</g>
	<g>
		<g>
			<path class="st3" d="M408,544.4c-55.7,0-101.1-45.3-101.1-101.1S352.3,342.3,408,342.3s101.1,45.3,101.1,101.1
				S463.7,544.4,408,544.4z"/>
		</g>
	</g>
</g>
</svg>
