<?xml version="1.0" encoding="utf-8"?>
<!-- Generator: Adobe Illustrator 24.1.2, SVG Export Plug-In . SVG Version: 6.00 Build 0)  -->
<svg version="1.1" id="Layer_1" xmlns="http://www.w3.org/2000/svg" xmlns:xlink="http://www.w3.org/1999/xlink" x="0px" y="0px"
	 viewBox="0 0 1080 1080" style="enable-background:new 0 0 1080 1080;" xml:space="preserve">
<style type="text/css">
	.st0{fill:#07C4C4;}
	.st1{fill:#0076C2;}
	.st2{fill:#009DED;}
	.st3{fill:#FF4011;}
	.st4{fill:#FCB903;}
	.st5{fill:#FAFAFA;}
	.st6{fill:#FFCE00;}
	.st7{fill:#FFAA00;}
	.st8{fill:#0599D3;}
	.st9{fill:#FFFFFF;}
	.st10{fill:#0BB2AD;}
	.st11{fill:#FDB62F;}
	.st12{fill:#FD7B2F;}
</style>
<g>
	<path class="st0" d="M886.5,122.8h-693c-58.5,0-106.1,47.6-106.1,106.1v622.3c0,58.5,47.6,106.1,106.1,106.1h693
		c58.5,0,106.1-47.6,106.1-106.1V228.9C992.6,170.4,945,122.8,886.5,122.8z M921.9,851.1c0,19.5-15.9,35.4-35.4,35.4h-693
		c-19.5,0-35.4-15.9-35.4-35.4V405.6h763.7V851.1z M921.9,334.9H158.1V228.9c0-19.5,15.9-35.4,35.4-35.4h693
		c19.5,0,35.4,15.9,35.4,35.4V334.9z"/>
	
		<ellipse transform="matrix(0.9975 -7.088833e-02 7.088833e-02 0.9975 -18.1095 18.1412)" class="st6" cx="246.5" cy="264.2" rx="35.4" ry="35.4"/>
	
		<ellipse transform="matrix(0.9975 -7.088833e-02 7.088833e-02 0.9975 -17.7982 26.9136)" class="st7" cx="370.3" cy="264.2" rx="35.4" ry="35.4"/>
	<polygon class="st1" points="650.2,649.4 700.2,699.4 824.2,575.4 700.2,451.4 650.2,501.4 688.9,540 502.9,540 502.9,610.7 
		688.9,610.7 	"/>
	<polygon class="st2" points="429.8,790.8 391.1,752.1 573.6,752.1 573.6,681.4 391.1,681.4 429.8,642.8 379.8,592.8 255.8,716.8 
		379.8,840.8 	"/>
</g>
</svg>
