<svg xmlns="http://www.w3.org/2000/svg" width="56.098" height="39.14" viewBox="0 0 56.098 39.14">
  <g id="Group_3775" data-name="Group 3775" transform="translate(6016.12 5460.008)">
    <path id="Path_4214" data-name="Path 4214" d="M9.456,0V-6.552l6.12-9.456H11.688L7.752-9.576,3.768-16.008H-.12L6.048-6.552V0Zm7.608-6.384c0,3.936,2.28,6.672,7.176,6.672,4.848,0,7.128-2.712,7.128-6.7v-9.6H27.912v9.5c0,2.232-1.224,3.768-3.672,3.768A3.42,3.42,0,0,1,20.52-6.5v-9.5H17.064ZM43.224,0c3.048,0,4.656-1.92,4.656-4.32a3.879,3.879,0,0,0-3.072-3.936,3.556,3.556,0,0,0,2.76-3.672c0-2.136-1.56-4.08-4.608-4.08H34.536V0Zm-5.28-13.1h4.272a1.735,1.735,0,0,1,1.872,1.752,1.728,1.728,0,0,1-1.872,1.776H37.944Zm0,6.432h4.392A1.871,1.871,0,0,1,44.4-4.8a1.839,1.839,0,0,1-2.064,1.9H37.944ZM53.856,0V-16.008H50.448V0Z" transform="translate(-6016 -5444)" fill="#fff"/>
    <g id="Group_3774" data-name="Group 3774" transform="translate(-6007.249 -5439)">
      <rect id="Rectangle_3" data-name="Rectangle 3" width="55.252" height="15.59" rx="4" transform="translate(-8.025 2.542)" fill="#fff"/>
      <path id="Path_4215" data-name="Path 4215" d="M2.288,0V-2.629h1.87A2.285,2.285,0,0,0,6.622-4.972,2.29,2.29,0,0,0,4.158-7.337H.726V0ZM5.027-4.983A1,1,0,0,1,3.949-3.971H2.288V-6H3.949A1.006,1.006,0,0,1,5.027-4.983ZM13.53,0,11.88-2.794a2.105,2.105,0,0,0,1.606-2.178,2.285,2.285,0,0,0-2.464-2.365H7.59V0H9.152V-2.629H10.3L11.737,0ZM11.891-4.983a1.013,1.013,0,0,1-1.1,1.012H9.152V-6h1.639A1.013,1.013,0,0,1,11.891-4.983Zm2.42,1.32a3.684,3.684,0,0,0,3.828,3.8,3.687,3.687,0,0,0,3.839-3.8,3.687,3.687,0,0,0-3.839-3.8A3.684,3.684,0,0,0,14.311-3.663Zm6.061,0a2.233,2.233,0,0,1-2.233,2.409,2.225,2.225,0,0,1-2.222-2.409,2.219,2.219,0,0,1,2.222-2.409A2.227,2.227,0,0,1,20.372-3.663Z" transform="translate(7.249 14)" fill="#1143d8"/>
    </g>
  </g>
</svg>
